G75*
G70*
%OFA0B0*%
%FSLAX24Y24*%
%IPPOS*%
%LPD*%
%AMOC8*
5,1,8,0,0,1.08239X$1,22.5*
%
%ADD10C,0.0000*%
%ADD11C,0.0080*%
%ADD12C,0.0100*%
%ADD13C,0.0060*%
%ADD14C,0.0070*%
%ADD15C,0.0050*%
D10*
X000150Y002119D02*
X002119Y000150D01*
X010386Y000150D01*
X012355Y002119D01*
X012355Y010622D01*
X008063Y010622D01*
X008063Y010032D01*
X005386Y010032D01*
X005386Y010622D01*
X000150Y010622D01*
X000150Y002119D01*
X002197Y001528D02*
X002199Y001573D01*
X002205Y001617D01*
X002214Y001661D01*
X002228Y001703D01*
X002245Y001744D01*
X002266Y001784D01*
X002290Y001822D01*
X002317Y001857D01*
X002347Y001890D01*
X002380Y001920D01*
X002415Y001947D01*
X002453Y001971D01*
X002493Y001992D01*
X002534Y002009D01*
X002576Y002023D01*
X002620Y002032D01*
X002664Y002038D01*
X002709Y002040D01*
X002754Y002038D01*
X002798Y002032D01*
X002842Y002023D01*
X002884Y002009D01*
X002925Y001992D01*
X002965Y001971D01*
X003003Y001947D01*
X003038Y001920D01*
X003071Y001890D01*
X003101Y001857D01*
X003128Y001822D01*
X003152Y001784D01*
X003173Y001744D01*
X003190Y001703D01*
X003204Y001661D01*
X003213Y001617D01*
X003219Y001573D01*
X003221Y001528D01*
X003219Y001483D01*
X003213Y001439D01*
X003204Y001395D01*
X003190Y001353D01*
X003173Y001312D01*
X003152Y001272D01*
X003128Y001234D01*
X003101Y001199D01*
X003071Y001166D01*
X003038Y001136D01*
X003003Y001109D01*
X002965Y001085D01*
X002925Y001064D01*
X002884Y001047D01*
X002842Y001033D01*
X002798Y001024D01*
X002754Y001018D01*
X002709Y001016D01*
X002664Y001018D01*
X002620Y001024D01*
X002576Y001033D01*
X002534Y001047D01*
X002493Y001064D01*
X002453Y001085D01*
X002415Y001109D01*
X002380Y001136D01*
X002347Y001166D01*
X002317Y001199D01*
X002290Y001234D01*
X002266Y001272D01*
X002245Y001312D01*
X002228Y001353D01*
X002214Y001395D01*
X002205Y001439D01*
X002199Y001483D01*
X002197Y001528D01*
X000800Y005071D02*
X000802Y005112D01*
X000808Y005153D01*
X000818Y005193D01*
X000831Y005232D01*
X000848Y005269D01*
X000869Y005305D01*
X000893Y005339D01*
X000920Y005370D01*
X000949Y005398D01*
X000982Y005424D01*
X001016Y005446D01*
X001053Y005465D01*
X001091Y005480D01*
X001131Y005492D01*
X001171Y005500D01*
X001212Y005504D01*
X001254Y005504D01*
X001295Y005500D01*
X001335Y005492D01*
X001375Y005480D01*
X001413Y005465D01*
X001449Y005446D01*
X001484Y005424D01*
X001517Y005398D01*
X001546Y005370D01*
X001573Y005339D01*
X001597Y005305D01*
X001618Y005269D01*
X001635Y005232D01*
X001648Y005193D01*
X001658Y005153D01*
X001664Y005112D01*
X001666Y005071D01*
X001664Y005030D01*
X001658Y004989D01*
X001648Y004949D01*
X001635Y004910D01*
X001618Y004873D01*
X001597Y004837D01*
X001573Y004803D01*
X001546Y004772D01*
X001517Y004744D01*
X001484Y004718D01*
X001450Y004696D01*
X001413Y004677D01*
X001375Y004662D01*
X001335Y004650D01*
X001295Y004642D01*
X001254Y004638D01*
X001212Y004638D01*
X001171Y004642D01*
X001131Y004650D01*
X001091Y004662D01*
X001053Y004677D01*
X001017Y004696D01*
X000982Y004718D01*
X000949Y004744D01*
X000920Y004772D01*
X000893Y004803D01*
X000869Y004837D01*
X000848Y004873D01*
X000831Y004910D01*
X000818Y004949D01*
X000808Y004989D01*
X000802Y005030D01*
X000800Y005071D01*
X002197Y008615D02*
X002199Y008660D01*
X002205Y008704D01*
X002214Y008748D01*
X002228Y008790D01*
X002245Y008831D01*
X002266Y008871D01*
X002290Y008909D01*
X002317Y008944D01*
X002347Y008977D01*
X002380Y009007D01*
X002415Y009034D01*
X002453Y009058D01*
X002493Y009079D01*
X002534Y009096D01*
X002576Y009110D01*
X002620Y009119D01*
X002664Y009125D01*
X002709Y009127D01*
X002754Y009125D01*
X002798Y009119D01*
X002842Y009110D01*
X002884Y009096D01*
X002925Y009079D01*
X002965Y009058D01*
X003003Y009034D01*
X003038Y009007D01*
X003071Y008977D01*
X003101Y008944D01*
X003128Y008909D01*
X003152Y008871D01*
X003173Y008831D01*
X003190Y008790D01*
X003204Y008748D01*
X003213Y008704D01*
X003219Y008660D01*
X003221Y008615D01*
X003219Y008570D01*
X003213Y008526D01*
X003204Y008482D01*
X003190Y008440D01*
X003173Y008399D01*
X003152Y008359D01*
X003128Y008321D01*
X003101Y008286D01*
X003071Y008253D01*
X003038Y008223D01*
X003003Y008196D01*
X002965Y008172D01*
X002925Y008151D01*
X002884Y008134D01*
X002842Y008120D01*
X002798Y008111D01*
X002754Y008105D01*
X002709Y008103D01*
X002664Y008105D01*
X002620Y008111D01*
X002576Y008120D01*
X002534Y008134D01*
X002493Y008151D01*
X002453Y008172D01*
X002415Y008196D01*
X002380Y008223D01*
X002347Y008253D01*
X002317Y008286D01*
X002290Y008321D01*
X002266Y008359D01*
X002245Y008399D01*
X002228Y008440D01*
X002214Y008482D01*
X002205Y008526D01*
X002199Y008570D01*
X002197Y008615D01*
X005961Y009465D02*
X005963Y009491D01*
X005969Y009517D01*
X005979Y009542D01*
X005992Y009565D01*
X006008Y009585D01*
X006028Y009603D01*
X006050Y009618D01*
X006073Y009630D01*
X006099Y009638D01*
X006125Y009642D01*
X006151Y009642D01*
X006177Y009638D01*
X006203Y009630D01*
X006227Y009618D01*
X006248Y009603D01*
X006268Y009585D01*
X006284Y009565D01*
X006297Y009542D01*
X006307Y009517D01*
X006313Y009491D01*
X006315Y009465D01*
X006313Y009439D01*
X006307Y009413D01*
X006297Y009388D01*
X006284Y009365D01*
X006268Y009345D01*
X006248Y009327D01*
X006226Y009312D01*
X006203Y009300D01*
X006177Y009292D01*
X006151Y009288D01*
X006125Y009288D01*
X006099Y009292D01*
X006073Y009300D01*
X006049Y009312D01*
X006028Y009327D01*
X006008Y009345D01*
X005992Y009365D01*
X005979Y009388D01*
X005969Y009413D01*
X005963Y009439D01*
X005961Y009465D01*
X007142Y009465D02*
X007144Y009491D01*
X007150Y009517D01*
X007160Y009542D01*
X007173Y009565D01*
X007189Y009585D01*
X007209Y009603D01*
X007231Y009618D01*
X007254Y009630D01*
X007280Y009638D01*
X007306Y009642D01*
X007332Y009642D01*
X007358Y009638D01*
X007384Y009630D01*
X007408Y009618D01*
X007429Y009603D01*
X007449Y009585D01*
X007465Y009565D01*
X007478Y009542D01*
X007488Y009517D01*
X007494Y009491D01*
X007496Y009465D01*
X007494Y009439D01*
X007488Y009413D01*
X007478Y009388D01*
X007465Y009365D01*
X007449Y009345D01*
X007429Y009327D01*
X007407Y009312D01*
X007384Y009300D01*
X007358Y009292D01*
X007332Y009288D01*
X007306Y009288D01*
X007280Y009292D01*
X007254Y009300D01*
X007230Y009312D01*
X007209Y009327D01*
X007189Y009345D01*
X007173Y009365D01*
X007160Y009388D01*
X007150Y009413D01*
X007144Y009439D01*
X007142Y009465D01*
X009284Y008615D02*
X009286Y008660D01*
X009292Y008704D01*
X009301Y008748D01*
X009315Y008790D01*
X009332Y008831D01*
X009353Y008871D01*
X009377Y008909D01*
X009404Y008944D01*
X009434Y008977D01*
X009467Y009007D01*
X009502Y009034D01*
X009540Y009058D01*
X009580Y009079D01*
X009621Y009096D01*
X009663Y009110D01*
X009707Y009119D01*
X009751Y009125D01*
X009796Y009127D01*
X009841Y009125D01*
X009885Y009119D01*
X009929Y009110D01*
X009971Y009096D01*
X010012Y009079D01*
X010052Y009058D01*
X010090Y009034D01*
X010125Y009007D01*
X010158Y008977D01*
X010188Y008944D01*
X010215Y008909D01*
X010239Y008871D01*
X010260Y008831D01*
X010277Y008790D01*
X010291Y008748D01*
X010300Y008704D01*
X010306Y008660D01*
X010308Y008615D01*
X010306Y008570D01*
X010300Y008526D01*
X010291Y008482D01*
X010277Y008440D01*
X010260Y008399D01*
X010239Y008359D01*
X010215Y008321D01*
X010188Y008286D01*
X010158Y008253D01*
X010125Y008223D01*
X010090Y008196D01*
X010052Y008172D01*
X010012Y008151D01*
X009971Y008134D01*
X009929Y008120D01*
X009885Y008111D01*
X009841Y008105D01*
X009796Y008103D01*
X009751Y008105D01*
X009707Y008111D01*
X009663Y008120D01*
X009621Y008134D01*
X009580Y008151D01*
X009540Y008172D01*
X009502Y008196D01*
X009467Y008223D01*
X009434Y008253D01*
X009404Y008286D01*
X009377Y008321D01*
X009353Y008359D01*
X009332Y008399D01*
X009315Y008440D01*
X009301Y008482D01*
X009292Y008526D01*
X009286Y008570D01*
X009284Y008615D01*
X010839Y005071D02*
X010841Y005112D01*
X010847Y005153D01*
X010857Y005193D01*
X010870Y005232D01*
X010887Y005269D01*
X010908Y005305D01*
X010932Y005339D01*
X010959Y005370D01*
X010988Y005398D01*
X011021Y005424D01*
X011055Y005446D01*
X011092Y005465D01*
X011130Y005480D01*
X011170Y005492D01*
X011210Y005500D01*
X011251Y005504D01*
X011293Y005504D01*
X011334Y005500D01*
X011374Y005492D01*
X011414Y005480D01*
X011452Y005465D01*
X011488Y005446D01*
X011523Y005424D01*
X011556Y005398D01*
X011585Y005370D01*
X011612Y005339D01*
X011636Y005305D01*
X011657Y005269D01*
X011674Y005232D01*
X011687Y005193D01*
X011697Y005153D01*
X011703Y005112D01*
X011705Y005071D01*
X011703Y005030D01*
X011697Y004989D01*
X011687Y004949D01*
X011674Y004910D01*
X011657Y004873D01*
X011636Y004837D01*
X011612Y004803D01*
X011585Y004772D01*
X011556Y004744D01*
X011523Y004718D01*
X011489Y004696D01*
X011452Y004677D01*
X011414Y004662D01*
X011374Y004650D01*
X011334Y004642D01*
X011293Y004638D01*
X011251Y004638D01*
X011210Y004642D01*
X011170Y004650D01*
X011130Y004662D01*
X011092Y004677D01*
X011056Y004696D01*
X011021Y004718D01*
X010988Y004744D01*
X010959Y004772D01*
X010932Y004803D01*
X010908Y004837D01*
X010887Y004873D01*
X010870Y004910D01*
X010857Y004949D01*
X010847Y004989D01*
X010841Y005030D01*
X010839Y005071D01*
X009284Y001528D02*
X009286Y001573D01*
X009292Y001617D01*
X009301Y001661D01*
X009315Y001703D01*
X009332Y001744D01*
X009353Y001784D01*
X009377Y001822D01*
X009404Y001857D01*
X009434Y001890D01*
X009467Y001920D01*
X009502Y001947D01*
X009540Y001971D01*
X009580Y001992D01*
X009621Y002009D01*
X009663Y002023D01*
X009707Y002032D01*
X009751Y002038D01*
X009796Y002040D01*
X009841Y002038D01*
X009885Y002032D01*
X009929Y002023D01*
X009971Y002009D01*
X010012Y001992D01*
X010052Y001971D01*
X010090Y001947D01*
X010125Y001920D01*
X010158Y001890D01*
X010188Y001857D01*
X010215Y001822D01*
X010239Y001784D01*
X010260Y001744D01*
X010277Y001703D01*
X010291Y001661D01*
X010300Y001617D01*
X010306Y001573D01*
X010308Y001528D01*
X010306Y001483D01*
X010300Y001439D01*
X010291Y001395D01*
X010277Y001353D01*
X010260Y001312D01*
X010239Y001272D01*
X010215Y001234D01*
X010188Y001199D01*
X010158Y001166D01*
X010125Y001136D01*
X010090Y001109D01*
X010052Y001085D01*
X010012Y001064D01*
X009971Y001047D01*
X009929Y001033D01*
X009885Y001024D01*
X009841Y001018D01*
X009796Y001016D01*
X009751Y001018D01*
X009707Y001024D01*
X009663Y001033D01*
X009621Y001047D01*
X009580Y001064D01*
X009540Y001085D01*
X009502Y001109D01*
X009467Y001136D01*
X009434Y001166D01*
X009404Y001199D01*
X009377Y001234D01*
X009353Y001272D01*
X009332Y001312D01*
X009315Y001353D01*
X009301Y001395D01*
X009292Y001439D01*
X009286Y001483D01*
X009284Y001528D01*
D11*
X004856Y008666D02*
X004576Y008666D01*
X004716Y008666D02*
X004716Y009087D01*
X004856Y008947D01*
X005044Y009221D02*
X000280Y009221D01*
X000280Y010520D01*
X005044Y010520D01*
X005044Y009221D01*
X004147Y009017D02*
X004077Y009087D01*
X003937Y009087D01*
X003867Y009017D01*
X003867Y008947D01*
X004147Y008666D01*
X003867Y008666D01*
X003537Y008736D02*
X003467Y008666D01*
X003327Y008666D01*
X003257Y008736D01*
X003257Y008806D01*
X003327Y008877D01*
X003397Y008877D01*
X003327Y008877D02*
X003257Y008947D01*
X003257Y009017D01*
X003327Y009087D01*
X003467Y009087D01*
X003537Y009017D01*
X002159Y008877D02*
X001879Y008877D01*
X001949Y009087D02*
X001949Y008666D01*
X002159Y008877D02*
X001949Y009087D01*
X001549Y009087D02*
X001549Y008877D01*
X001409Y008947D01*
X001339Y008947D01*
X001269Y008877D01*
X001269Y008736D01*
X001339Y008666D01*
X001479Y008666D01*
X001549Y008736D01*
X001549Y009087D02*
X001269Y009087D01*
X000801Y008877D02*
X000801Y008736D01*
X000731Y008666D01*
X000591Y008666D01*
X000521Y008736D01*
X000521Y008806D01*
X000591Y008877D01*
X000801Y008877D01*
X000661Y009017D01*
X000521Y009087D01*
X008370Y009225D02*
X009197Y009225D01*
X009197Y010524D01*
X008370Y010524D01*
X008370Y009225D01*
X010457Y009225D02*
X012284Y009225D01*
X012284Y010524D01*
X010457Y010524D01*
X010457Y009225D01*
D12*
X004244Y009264D02*
X004244Y010504D01*
X004146Y006607D02*
X003162Y006607D01*
X004146Y006607D02*
X004146Y006430D01*
D13*
X004651Y005776D02*
X004651Y004366D01*
X004741Y005376D02*
X004743Y005405D01*
X004749Y005433D01*
X004758Y005460D01*
X004772Y005485D01*
X004788Y005509D01*
X004808Y005529D01*
X004830Y005548D01*
X004854Y005562D01*
X004881Y005574D01*
X004908Y005582D01*
X004937Y005586D01*
X004965Y005586D01*
X004994Y005582D01*
X005021Y005574D01*
X005048Y005562D01*
X005072Y005548D01*
X005094Y005529D01*
X005114Y005509D01*
X005130Y005485D01*
X005144Y005460D01*
X005153Y005433D01*
X005159Y005405D01*
X005161Y005376D01*
X005159Y005347D01*
X005153Y005319D01*
X005144Y005292D01*
X005130Y005267D01*
X005114Y005243D01*
X005094Y005223D01*
X005072Y005204D01*
X005048Y005190D01*
X005021Y005178D01*
X004994Y005170D01*
X004965Y005166D01*
X004937Y005166D01*
X004908Y005170D01*
X004881Y005178D01*
X004854Y005190D01*
X004830Y005204D01*
X004808Y005223D01*
X004788Y005243D01*
X004772Y005267D01*
X004758Y005292D01*
X004749Y005319D01*
X004743Y005347D01*
X004741Y005376D01*
X003042Y006515D02*
X002868Y006515D01*
X002955Y006515D02*
X002955Y006775D01*
X003042Y006688D01*
X002747Y006731D02*
X002747Y006558D01*
X002574Y006731D01*
X002574Y006558D01*
X002617Y006515D01*
X002704Y006515D01*
X002747Y006558D01*
X002747Y006731D02*
X002704Y006775D01*
X002617Y006775D01*
X002574Y006731D01*
X002452Y006731D02*
X002409Y006775D01*
X002322Y006775D01*
X002279Y006731D01*
X002452Y006558D01*
X002409Y006515D01*
X002322Y006515D01*
X002279Y006558D01*
X002279Y006731D01*
X002158Y006688D02*
X002028Y006688D01*
X001984Y006645D01*
X001984Y006515D01*
X001863Y006515D02*
X001863Y006775D01*
X001690Y006775D01*
X001776Y006645D02*
X001863Y006645D01*
X002158Y006688D02*
X002158Y006515D01*
X002452Y006558D02*
X002452Y006731D01*
X006472Y007329D02*
X006472Y007459D01*
X006516Y007502D01*
X006559Y007459D01*
X006559Y007329D01*
X006646Y007329D02*
X006646Y007502D01*
X006602Y007502D01*
X006559Y007459D01*
X006767Y007459D02*
X006767Y007329D01*
X006767Y007459D02*
X006810Y007502D01*
X006897Y007502D01*
X006940Y007459D01*
X006940Y007589D02*
X006940Y007329D01*
X007062Y007372D02*
X007062Y007545D01*
X007105Y007589D01*
X007192Y007589D01*
X007235Y007545D01*
X007235Y007372D01*
X007192Y007329D01*
X007105Y007329D01*
X007062Y007372D01*
X007351Y007329D02*
X007481Y007415D01*
X007351Y007502D01*
X007481Y007589D02*
X007481Y007329D01*
X007602Y007372D02*
X007645Y007329D01*
X007732Y007329D01*
X007775Y007372D01*
X007602Y007545D01*
X007602Y007372D01*
X007775Y007372D02*
X007775Y007545D01*
X007732Y007589D01*
X007645Y007589D01*
X007602Y007545D01*
X007896Y007329D02*
X008070Y007329D01*
X007983Y007329D02*
X007983Y007589D01*
X008070Y007502D01*
X009326Y009176D02*
X009666Y009176D01*
X009666Y009346D01*
X009609Y009403D01*
X009496Y009403D01*
X009439Y009346D01*
X009439Y009176D01*
X009439Y009289D02*
X009326Y009403D01*
X009326Y009544D02*
X009666Y009544D01*
X009326Y009771D01*
X009666Y009771D01*
X009609Y009912D02*
X009382Y009912D01*
X009326Y009969D01*
X009326Y010082D01*
X009382Y010139D01*
X009496Y010139D01*
X009496Y010026D01*
X009609Y010139D02*
X009666Y010082D01*
X009666Y009969D01*
X009609Y009912D01*
X009496Y010281D02*
X009496Y010507D01*
X009609Y010394D02*
X009382Y010394D01*
X008011Y005776D02*
X008011Y004366D01*
X008196Y005058D02*
X008196Y005231D01*
X008283Y005318D01*
X008370Y005231D01*
X008370Y005058D01*
X008370Y005188D02*
X008196Y005188D01*
X008491Y005188D02*
X008665Y005188D01*
X008534Y005318D01*
X008534Y005058D01*
X008786Y005058D02*
X008959Y005058D01*
X008786Y005231D01*
X008786Y005275D01*
X008829Y005318D01*
X008916Y005318D01*
X008959Y005275D01*
X009080Y005231D02*
X009080Y005015D01*
X009124Y004971D01*
X009167Y004971D01*
X009210Y005058D02*
X009080Y005058D01*
X009210Y005058D02*
X009254Y005101D01*
X009254Y005231D01*
X009375Y005188D02*
X009375Y005058D01*
X009375Y005188D02*
X009418Y005231D01*
X009549Y005231D01*
X009549Y005058D01*
X009658Y005058D02*
X009745Y005058D01*
X009702Y005058D02*
X009702Y005231D01*
X009745Y005231D01*
X009702Y005318D02*
X009702Y005362D01*
X009855Y005231D02*
X009941Y005231D01*
X009898Y005275D02*
X009898Y005101D01*
X009855Y005058D01*
X010051Y005058D02*
X010094Y005101D01*
X010094Y005275D01*
X010051Y005231D02*
X010138Y005231D01*
X010259Y005231D02*
X010346Y005318D01*
X010432Y005231D01*
X010432Y005058D01*
X010432Y005188D02*
X010259Y005188D01*
X010259Y005231D02*
X010259Y005058D01*
X009276Y004367D02*
X009276Y002367D01*
X011276Y002367D01*
X011276Y003367D01*
X012276Y003367D01*
X012276Y004367D01*
X009276Y004367D01*
X011276Y002367D02*
X012276Y002367D01*
X012276Y003367D01*
D14*
X011153Y002244D02*
X011043Y002244D01*
X011098Y002244D02*
X011098Y001913D01*
X011153Y001913D02*
X011043Y001913D01*
X010908Y001968D02*
X010853Y001913D01*
X010743Y001913D01*
X010688Y001968D01*
X010688Y002023D01*
X010743Y002078D01*
X010853Y002078D01*
X010908Y002134D01*
X010908Y002189D01*
X010853Y002244D01*
X010743Y002244D01*
X010688Y002189D01*
X010539Y002244D02*
X010374Y002244D01*
X010319Y002189D01*
X010319Y002078D01*
X010374Y002023D01*
X010539Y002023D01*
X010539Y001913D02*
X010539Y002244D01*
X010680Y008757D02*
X010900Y008757D01*
X010900Y009088D01*
X011785Y009088D02*
X011785Y009033D01*
X012005Y008812D01*
X012005Y008757D01*
X011785Y008757D01*
X011785Y009088D02*
X012005Y009088D01*
D15*
X006333Y007799D02*
X006333Y007049D01*
X004912Y007049D01*
X004912Y007799D01*
X006333Y007799D01*
X004505Y006380D02*
X003755Y006380D01*
X003755Y004959D01*
X004505Y004959D01*
X004505Y006380D01*
M02*
