G75*
G70*
%OFA0B0*%
%FSLAX24Y24*%
%IPPOS*%
%LPD*%
%AMOC8*
5,1,8,0,0,1.08239X$1,22.5*
%
%ADD10C,0.0000*%
%ADD11C,0.0080*%
%ADD12C,0.0100*%
%ADD13C,0.0060*%
%ADD14C,0.0070*%
%ADD15R,0.3131X0.0006*%
%ADD16R,0.0535X0.0006*%
%ADD17R,0.0403X0.0006*%
%ADD18R,0.1726X0.0006*%
%ADD19R,0.0208X0.0006*%
%ADD20R,0.0183X0.0006*%
%ADD21R,0.0220X0.0006*%
%ADD22R,0.0346X0.0006*%
%ADD23R,0.0126X0.0006*%
%ADD24R,0.0296X0.0006*%
%ADD25R,0.0076X0.0006*%
%ADD26R,0.0239X0.0006*%
%ADD27R,0.0384X0.0006*%
%ADD28R,0.0151X0.0006*%
%ADD29R,0.0176X0.0006*%
%ADD30R,0.0170X0.0006*%
%ADD31R,0.0315X0.0006*%
%ADD32R,0.0094X0.0006*%
%ADD33R,0.0271X0.0006*%
%ADD34R,0.0057X0.0006*%
%ADD35R,0.0214X0.0006*%
%ADD36R,0.0365X0.0006*%
%ADD37R,0.0120X0.0006*%
%ADD38R,0.0157X0.0006*%
%ADD39R,0.0164X0.0006*%
%ADD40R,0.0302X0.0006*%
%ADD41R,0.0088X0.0006*%
%ADD42R,0.0202X0.0006*%
%ADD43R,0.0359X0.0006*%
%ADD44R,0.0101X0.0006*%
%ADD45R,0.0145X0.0006*%
%ADD46R,0.0283X0.0006*%
%ADD47R,0.0265X0.0006*%
%ADD48R,0.0353X0.0006*%
%ADD49R,0.0132X0.0006*%
%ADD50R,0.0139X0.0006*%
%ADD51R,0.0258X0.0006*%
%ADD52R,0.0195X0.0006*%
%ADD53R,0.0189X0.0006*%
%ADD54R,0.0082X0.0006*%
%ADD55R,0.0113X0.0006*%
%ADD56R,0.0069X0.0006*%
%ADD57R,0.0252X0.0006*%
%ADD58R,0.0107X0.0006*%
%ADD59R,0.0246X0.0006*%
%ADD60R,0.0063X0.0006*%
%ADD61R,0.0233X0.0006*%
%ADD62R,0.0227X0.0006*%
%ADD63R,0.0038X0.0006*%
%ADD64R,0.0006X0.0006*%
%ADD65R,0.0290X0.0006*%
%ADD66R,0.0321X0.0006*%
%ADD67R,0.0019X0.0006*%
%ADD68R,0.0050X0.0006*%
%ADD69R,0.0031X0.0006*%
%ADD70R,0.0309X0.0006*%
%ADD71R,0.0044X0.0006*%
%ADD72R,0.0013X0.0006*%
%ADD73R,0.0277X0.0006*%
%ADD74R,0.0025X0.0006*%
%ADD75R,0.0328X0.0006*%
%ADD76R,0.0334X0.0006*%
%ADD77R,0.0340X0.0006*%
%ADD78R,0.0372X0.0006*%
%ADD79R,0.0428X0.0006*%
%ADD80R,0.0409X0.0006*%
%ADD81R,0.0397X0.0006*%
%ADD82R,0.0378X0.0006*%
%ADD83R,0.0643X0.0006*%
%ADD84R,0.0636X0.0006*%
%ADD85R,0.0460X0.0006*%
%ADD86R,0.0454X0.0006*%
%ADD87R,0.0466X0.0006*%
%ADD88R,0.0472X0.0006*%
%ADD89R,0.0485X0.0006*%
%ADD90R,0.0498X0.0006*%
%ADD91R,0.0510X0.0006*%
%ADD92R,0.0435X0.0006*%
%ADD93R,0.0561X0.0006*%
%ADD94R,0.2488X0.0006*%
%ADD95C,0.0160*%
%ADD96R,0.0152X0.0014*%
%ADD97R,0.0097X0.0014*%
%ADD98R,0.0235X0.0014*%
%ADD99R,0.0276X0.0014*%
%ADD100R,0.0152X0.0014*%
%ADD101R,0.0249X0.0014*%
%ADD102R,0.0124X0.0014*%
%ADD103R,0.0290X0.0014*%
%ADD104R,0.0332X0.0014*%
%ADD105R,0.0166X0.0014*%
%ADD106R,0.0304X0.0014*%
%ADD107R,0.0345X0.0014*%
%ADD108R,0.0373X0.0014*%
%ADD109R,0.0193X0.0014*%
%ADD110R,0.0345X0.0014*%
%ADD111R,0.0387X0.0014*%
%ADD112R,0.0359X0.0014*%
%ADD113R,0.0401X0.0014*%
%ADD114R,0.0373X0.0014*%
%ADD115R,0.0414X0.0014*%
%ADD116R,0.0221X0.0014*%
%ADD117R,0.0387X0.0014*%
%ADD118R,0.0428X0.0014*%
%ADD119R,0.0180X0.0014*%
%ADD120R,0.0193X0.0014*%
%ADD121R,0.0111X0.0014*%
%ADD122R,0.0055X0.0014*%
%ADD123R,0.0166X0.0014*%
%ADD124R,0.0083X0.0014*%
%ADD125R,0.0028X0.0014*%
%ADD126R,0.0152X0.0014*%
%ADD127R,0.0180X0.0014*%
%ADD128R,0.0055X0.0014*%
%ADD129R,0.0138X0.0014*%
%ADD130R,0.0028X0.0014*%
%ADD131R,0.0249X0.0014*%
%ADD132R,0.0332X0.0014*%
%ADD133R,0.0207X0.0014*%
%ADD134R,0.0318X0.0014*%
%ADD135R,0.0124X0.0014*%
%ADD136R,0.0262X0.0014*%
%ADD137R,0.0124X0.0014*%
%ADD138R,0.0152X0.0014*%
%ADD139R,0.0138X0.0014*%
%ADD140R,0.0166X0.0014*%
%ADD141R,0.0124X0.0014*%
%ADD142R,0.0138X0.0014*%
%ADD143R,0.0111X0.0014*%
%ADD144R,0.0069X0.0014*%
%ADD145R,0.0359X0.0014*%
%ADD146R,0.0221X0.0014*%
%ADD147R,0.0207X0.0014*%
%ADD148R,0.0235X0.0014*%
%ADD149R,0.0097X0.0014*%
%ADD150R,0.0290X0.0014*%
%ADD151R,0.0041X0.0014*%
%ADD152R,0.0014X0.0014*%
%ADD153R,0.0318X0.0014*%
%ADD154R,0.0083X0.0014*%
%ADD155R,0.0028X0.0014*%
%ADD156R,0.0166X0.0014*%
%ADD157R,0.0055X0.0014*%
%ADD158R,0.0193X0.0014*%
%ADD159R,0.0111X0.0014*%
%ADD160R,0.0124X0.0014*%
%ADD161R,0.0401X0.0014*%
%ADD162R,0.0470X0.0014*%
%ADD163R,0.0497X0.0014*%
%ADD164R,0.0304X0.0014*%
D10*
X000150Y002119D02*
X002119Y000150D01*
X010386Y000150D01*
X012355Y002119D01*
X012355Y010622D01*
X008063Y010622D01*
X008063Y010032D01*
X005386Y010032D01*
X005386Y010622D01*
X000150Y010622D01*
X000150Y002119D01*
X002197Y001528D02*
X002199Y001573D01*
X002205Y001617D01*
X002214Y001661D01*
X002228Y001703D01*
X002245Y001744D01*
X002266Y001784D01*
X002290Y001822D01*
X002317Y001857D01*
X002347Y001890D01*
X002380Y001920D01*
X002415Y001947D01*
X002453Y001971D01*
X002493Y001992D01*
X002534Y002009D01*
X002576Y002023D01*
X002620Y002032D01*
X002664Y002038D01*
X002709Y002040D01*
X002754Y002038D01*
X002798Y002032D01*
X002842Y002023D01*
X002884Y002009D01*
X002925Y001992D01*
X002965Y001971D01*
X003003Y001947D01*
X003038Y001920D01*
X003071Y001890D01*
X003101Y001857D01*
X003128Y001822D01*
X003152Y001784D01*
X003173Y001744D01*
X003190Y001703D01*
X003204Y001661D01*
X003213Y001617D01*
X003219Y001573D01*
X003221Y001528D01*
X003219Y001483D01*
X003213Y001439D01*
X003204Y001395D01*
X003190Y001353D01*
X003173Y001312D01*
X003152Y001272D01*
X003128Y001234D01*
X003101Y001199D01*
X003071Y001166D01*
X003038Y001136D01*
X003003Y001109D01*
X002965Y001085D01*
X002925Y001064D01*
X002884Y001047D01*
X002842Y001033D01*
X002798Y001024D01*
X002754Y001018D01*
X002709Y001016D01*
X002664Y001018D01*
X002620Y001024D01*
X002576Y001033D01*
X002534Y001047D01*
X002493Y001064D01*
X002453Y001085D01*
X002415Y001109D01*
X002380Y001136D01*
X002347Y001166D01*
X002317Y001199D01*
X002290Y001234D01*
X002266Y001272D01*
X002245Y001312D01*
X002228Y001353D01*
X002214Y001395D01*
X002205Y001439D01*
X002199Y001483D01*
X002197Y001528D01*
X000800Y005071D02*
X000802Y005112D01*
X000808Y005153D01*
X000818Y005193D01*
X000831Y005232D01*
X000848Y005269D01*
X000869Y005305D01*
X000893Y005339D01*
X000920Y005370D01*
X000949Y005398D01*
X000982Y005424D01*
X001016Y005446D01*
X001053Y005465D01*
X001091Y005480D01*
X001131Y005492D01*
X001171Y005500D01*
X001212Y005504D01*
X001254Y005504D01*
X001295Y005500D01*
X001335Y005492D01*
X001375Y005480D01*
X001413Y005465D01*
X001449Y005446D01*
X001484Y005424D01*
X001517Y005398D01*
X001546Y005370D01*
X001573Y005339D01*
X001597Y005305D01*
X001618Y005269D01*
X001635Y005232D01*
X001648Y005193D01*
X001658Y005153D01*
X001664Y005112D01*
X001666Y005071D01*
X001664Y005030D01*
X001658Y004989D01*
X001648Y004949D01*
X001635Y004910D01*
X001618Y004873D01*
X001597Y004837D01*
X001573Y004803D01*
X001546Y004772D01*
X001517Y004744D01*
X001484Y004718D01*
X001450Y004696D01*
X001413Y004677D01*
X001375Y004662D01*
X001335Y004650D01*
X001295Y004642D01*
X001254Y004638D01*
X001212Y004638D01*
X001171Y004642D01*
X001131Y004650D01*
X001091Y004662D01*
X001053Y004677D01*
X001017Y004696D01*
X000982Y004718D01*
X000949Y004744D01*
X000920Y004772D01*
X000893Y004803D01*
X000869Y004837D01*
X000848Y004873D01*
X000831Y004910D01*
X000818Y004949D01*
X000808Y004989D01*
X000802Y005030D01*
X000800Y005071D01*
X002197Y008615D02*
X002199Y008660D01*
X002205Y008704D01*
X002214Y008748D01*
X002228Y008790D01*
X002245Y008831D01*
X002266Y008871D01*
X002290Y008909D01*
X002317Y008944D01*
X002347Y008977D01*
X002380Y009007D01*
X002415Y009034D01*
X002453Y009058D01*
X002493Y009079D01*
X002534Y009096D01*
X002576Y009110D01*
X002620Y009119D01*
X002664Y009125D01*
X002709Y009127D01*
X002754Y009125D01*
X002798Y009119D01*
X002842Y009110D01*
X002884Y009096D01*
X002925Y009079D01*
X002965Y009058D01*
X003003Y009034D01*
X003038Y009007D01*
X003071Y008977D01*
X003101Y008944D01*
X003128Y008909D01*
X003152Y008871D01*
X003173Y008831D01*
X003190Y008790D01*
X003204Y008748D01*
X003213Y008704D01*
X003219Y008660D01*
X003221Y008615D01*
X003219Y008570D01*
X003213Y008526D01*
X003204Y008482D01*
X003190Y008440D01*
X003173Y008399D01*
X003152Y008359D01*
X003128Y008321D01*
X003101Y008286D01*
X003071Y008253D01*
X003038Y008223D01*
X003003Y008196D01*
X002965Y008172D01*
X002925Y008151D01*
X002884Y008134D01*
X002842Y008120D01*
X002798Y008111D01*
X002754Y008105D01*
X002709Y008103D01*
X002664Y008105D01*
X002620Y008111D01*
X002576Y008120D01*
X002534Y008134D01*
X002493Y008151D01*
X002453Y008172D01*
X002415Y008196D01*
X002380Y008223D01*
X002347Y008253D01*
X002317Y008286D01*
X002290Y008321D01*
X002266Y008359D01*
X002245Y008399D01*
X002228Y008440D01*
X002214Y008482D01*
X002205Y008526D01*
X002199Y008570D01*
X002197Y008615D01*
X005961Y009465D02*
X005963Y009491D01*
X005969Y009517D01*
X005979Y009542D01*
X005992Y009565D01*
X006008Y009585D01*
X006028Y009603D01*
X006050Y009618D01*
X006073Y009630D01*
X006099Y009638D01*
X006125Y009642D01*
X006151Y009642D01*
X006177Y009638D01*
X006203Y009630D01*
X006227Y009618D01*
X006248Y009603D01*
X006268Y009585D01*
X006284Y009565D01*
X006297Y009542D01*
X006307Y009517D01*
X006313Y009491D01*
X006315Y009465D01*
X006313Y009439D01*
X006307Y009413D01*
X006297Y009388D01*
X006284Y009365D01*
X006268Y009345D01*
X006248Y009327D01*
X006226Y009312D01*
X006203Y009300D01*
X006177Y009292D01*
X006151Y009288D01*
X006125Y009288D01*
X006099Y009292D01*
X006073Y009300D01*
X006049Y009312D01*
X006028Y009327D01*
X006008Y009345D01*
X005992Y009365D01*
X005979Y009388D01*
X005969Y009413D01*
X005963Y009439D01*
X005961Y009465D01*
X007142Y009465D02*
X007144Y009491D01*
X007150Y009517D01*
X007160Y009542D01*
X007173Y009565D01*
X007189Y009585D01*
X007209Y009603D01*
X007231Y009618D01*
X007254Y009630D01*
X007280Y009638D01*
X007306Y009642D01*
X007332Y009642D01*
X007358Y009638D01*
X007384Y009630D01*
X007408Y009618D01*
X007429Y009603D01*
X007449Y009585D01*
X007465Y009565D01*
X007478Y009542D01*
X007488Y009517D01*
X007494Y009491D01*
X007496Y009465D01*
X007494Y009439D01*
X007488Y009413D01*
X007478Y009388D01*
X007465Y009365D01*
X007449Y009345D01*
X007429Y009327D01*
X007407Y009312D01*
X007384Y009300D01*
X007358Y009292D01*
X007332Y009288D01*
X007306Y009288D01*
X007280Y009292D01*
X007254Y009300D01*
X007230Y009312D01*
X007209Y009327D01*
X007189Y009345D01*
X007173Y009365D01*
X007160Y009388D01*
X007150Y009413D01*
X007144Y009439D01*
X007142Y009465D01*
X009284Y008615D02*
X009286Y008660D01*
X009292Y008704D01*
X009301Y008748D01*
X009315Y008790D01*
X009332Y008831D01*
X009353Y008871D01*
X009377Y008909D01*
X009404Y008944D01*
X009434Y008977D01*
X009467Y009007D01*
X009502Y009034D01*
X009540Y009058D01*
X009580Y009079D01*
X009621Y009096D01*
X009663Y009110D01*
X009707Y009119D01*
X009751Y009125D01*
X009796Y009127D01*
X009841Y009125D01*
X009885Y009119D01*
X009929Y009110D01*
X009971Y009096D01*
X010012Y009079D01*
X010052Y009058D01*
X010090Y009034D01*
X010125Y009007D01*
X010158Y008977D01*
X010188Y008944D01*
X010215Y008909D01*
X010239Y008871D01*
X010260Y008831D01*
X010277Y008790D01*
X010291Y008748D01*
X010300Y008704D01*
X010306Y008660D01*
X010308Y008615D01*
X010306Y008570D01*
X010300Y008526D01*
X010291Y008482D01*
X010277Y008440D01*
X010260Y008399D01*
X010239Y008359D01*
X010215Y008321D01*
X010188Y008286D01*
X010158Y008253D01*
X010125Y008223D01*
X010090Y008196D01*
X010052Y008172D01*
X010012Y008151D01*
X009971Y008134D01*
X009929Y008120D01*
X009885Y008111D01*
X009841Y008105D01*
X009796Y008103D01*
X009751Y008105D01*
X009707Y008111D01*
X009663Y008120D01*
X009621Y008134D01*
X009580Y008151D01*
X009540Y008172D01*
X009502Y008196D01*
X009467Y008223D01*
X009434Y008253D01*
X009404Y008286D01*
X009377Y008321D01*
X009353Y008359D01*
X009332Y008399D01*
X009315Y008440D01*
X009301Y008482D01*
X009292Y008526D01*
X009286Y008570D01*
X009284Y008615D01*
X010839Y005071D02*
X010841Y005112D01*
X010847Y005153D01*
X010857Y005193D01*
X010870Y005232D01*
X010887Y005269D01*
X010908Y005305D01*
X010932Y005339D01*
X010959Y005370D01*
X010988Y005398D01*
X011021Y005424D01*
X011055Y005446D01*
X011092Y005465D01*
X011130Y005480D01*
X011170Y005492D01*
X011210Y005500D01*
X011251Y005504D01*
X011293Y005504D01*
X011334Y005500D01*
X011374Y005492D01*
X011414Y005480D01*
X011452Y005465D01*
X011488Y005446D01*
X011523Y005424D01*
X011556Y005398D01*
X011585Y005370D01*
X011612Y005339D01*
X011636Y005305D01*
X011657Y005269D01*
X011674Y005232D01*
X011687Y005193D01*
X011697Y005153D01*
X011703Y005112D01*
X011705Y005071D01*
X011703Y005030D01*
X011697Y004989D01*
X011687Y004949D01*
X011674Y004910D01*
X011657Y004873D01*
X011636Y004837D01*
X011612Y004803D01*
X011585Y004772D01*
X011556Y004744D01*
X011523Y004718D01*
X011489Y004696D01*
X011452Y004677D01*
X011414Y004662D01*
X011374Y004650D01*
X011334Y004642D01*
X011293Y004638D01*
X011251Y004638D01*
X011210Y004642D01*
X011170Y004650D01*
X011130Y004662D01*
X011092Y004677D01*
X011056Y004696D01*
X011021Y004718D01*
X010988Y004744D01*
X010959Y004772D01*
X010932Y004803D01*
X010908Y004837D01*
X010887Y004873D01*
X010870Y004910D01*
X010857Y004949D01*
X010847Y004989D01*
X010841Y005030D01*
X010839Y005071D01*
X009284Y001528D02*
X009286Y001573D01*
X009292Y001617D01*
X009301Y001661D01*
X009315Y001703D01*
X009332Y001744D01*
X009353Y001784D01*
X009377Y001822D01*
X009404Y001857D01*
X009434Y001890D01*
X009467Y001920D01*
X009502Y001947D01*
X009540Y001971D01*
X009580Y001992D01*
X009621Y002009D01*
X009663Y002023D01*
X009707Y002032D01*
X009751Y002038D01*
X009796Y002040D01*
X009841Y002038D01*
X009885Y002032D01*
X009929Y002023D01*
X009971Y002009D01*
X010012Y001992D01*
X010052Y001971D01*
X010090Y001947D01*
X010125Y001920D01*
X010158Y001890D01*
X010188Y001857D01*
X010215Y001822D01*
X010239Y001784D01*
X010260Y001744D01*
X010277Y001703D01*
X010291Y001661D01*
X010300Y001617D01*
X010306Y001573D01*
X010308Y001528D01*
X010306Y001483D01*
X010300Y001439D01*
X010291Y001395D01*
X010277Y001353D01*
X010260Y001312D01*
X010239Y001272D01*
X010215Y001234D01*
X010188Y001199D01*
X010158Y001166D01*
X010125Y001136D01*
X010090Y001109D01*
X010052Y001085D01*
X010012Y001064D01*
X009971Y001047D01*
X009929Y001033D01*
X009885Y001024D01*
X009841Y001018D01*
X009796Y001016D01*
X009751Y001018D01*
X009707Y001024D01*
X009663Y001033D01*
X009621Y001047D01*
X009580Y001064D01*
X009540Y001085D01*
X009502Y001109D01*
X009467Y001136D01*
X009434Y001166D01*
X009404Y001199D01*
X009377Y001234D01*
X009353Y001272D01*
X009332Y001312D01*
X009315Y001353D01*
X009301Y001395D01*
X009292Y001439D01*
X009286Y001483D01*
X009284Y001528D01*
D11*
X009074Y008443D02*
X008444Y008443D01*
X008428Y008448D01*
X008412Y008456D01*
X008398Y008466D01*
X008386Y008478D01*
X008376Y008493D01*
X008369Y008509D01*
X008365Y008526D01*
X008364Y008543D01*
X008366Y008561D01*
X008366Y009112D02*
X008364Y009130D01*
X008365Y009147D01*
X008369Y009164D01*
X008376Y009180D01*
X008386Y009195D01*
X008398Y009207D01*
X008412Y009217D01*
X008428Y009225D01*
X008444Y009230D01*
X009074Y009230D01*
X009075Y009230D02*
X009091Y009225D01*
X009107Y009217D01*
X009121Y009207D01*
X009133Y009195D01*
X009143Y009180D01*
X009150Y009164D01*
X009154Y009147D01*
X009155Y009130D01*
X009153Y009112D01*
X009197Y009225D02*
X008370Y009225D01*
X008370Y010524D01*
X009197Y010524D01*
X009197Y009225D01*
X009153Y008561D02*
X009155Y008543D01*
X009154Y008526D01*
X009150Y008509D01*
X009143Y008493D01*
X009133Y008478D01*
X009121Y008466D01*
X009107Y008456D01*
X009091Y008448D01*
X009075Y008443D01*
X010457Y009225D02*
X010457Y010524D01*
X012284Y010524D01*
X012284Y009225D01*
X010457Y009225D01*
X005044Y009221D02*
X000280Y009221D01*
X000280Y010520D01*
X005044Y010520D01*
X005044Y009221D01*
X004718Y009087D02*
X004718Y008666D01*
X004578Y008666D02*
X004858Y008666D01*
X004578Y008947D02*
X004718Y009087D01*
X004149Y009017D02*
X004149Y008947D01*
X003869Y008666D01*
X004149Y008666D01*
X004149Y009017D02*
X004079Y009087D01*
X003939Y009087D01*
X003869Y009017D01*
X003539Y009017D02*
X003539Y008947D01*
X003469Y008877D01*
X003539Y008806D01*
X003539Y008736D01*
X003469Y008666D01*
X003329Y008666D01*
X003259Y008736D01*
X003399Y008877D02*
X003469Y008877D01*
X003539Y009017D02*
X003469Y009087D01*
X003329Y009087D01*
X003259Y009017D01*
X002161Y008877D02*
X001881Y008877D01*
X002091Y009087D01*
X002091Y008666D01*
X001551Y008736D02*
X001481Y008666D01*
X001341Y008666D01*
X001271Y008736D01*
X001271Y008877D02*
X001411Y008947D01*
X001481Y008947D01*
X001551Y008877D01*
X001551Y008736D01*
X001271Y008877D02*
X001271Y009087D01*
X001551Y009087D01*
X000803Y009087D02*
X000663Y009017D01*
X000523Y008877D01*
X000733Y008877D01*
X000803Y008806D01*
X000803Y008736D01*
X000733Y008666D01*
X000593Y008666D01*
X000523Y008736D01*
X000523Y008877D01*
D12*
X004244Y009264D02*
X004244Y010504D01*
X006134Y009796D02*
X006370Y009678D01*
X006370Y009914D02*
X006134Y009796D01*
X007315Y009796D01*
X007079Y009914D01*
X007079Y009678D02*
X007315Y009796D01*
D13*
X009327Y009771D02*
X009667Y009771D01*
X009327Y009544D01*
X009667Y009544D01*
X009667Y009403D02*
X009554Y009289D01*
X009554Y009346D02*
X009497Y009403D01*
X009384Y009403D01*
X009327Y009346D01*
X009327Y009176D01*
X009667Y009176D01*
X009554Y009176D02*
X009554Y009346D01*
X009611Y009912D02*
X009384Y009912D01*
X009327Y009969D01*
X009327Y010082D01*
X009384Y010139D01*
X009497Y010139D02*
X009497Y010026D01*
X009497Y010139D02*
X009611Y010139D01*
X009667Y010082D01*
X009667Y009969D01*
X009611Y009912D01*
X009497Y010281D02*
X009497Y010507D01*
X009384Y010394D02*
X009611Y010394D01*
D14*
X010673Y009092D02*
X010673Y008761D01*
X010893Y008761D01*
X011778Y008761D02*
X011998Y008761D01*
X011778Y008761D02*
X011778Y008816D01*
X011998Y009037D01*
X011998Y009092D01*
X011778Y009092D01*
X007586Y008895D02*
X007586Y008840D01*
X007531Y008840D01*
X007531Y008895D01*
X007586Y008895D01*
X007383Y008895D02*
X007383Y008950D01*
X007328Y009005D01*
X007163Y009005D01*
X007163Y008840D02*
X007328Y008840D01*
X007383Y008895D01*
X007328Y009005D02*
X007383Y009060D01*
X007383Y009115D01*
X007328Y009170D01*
X007163Y009170D01*
X007163Y008840D01*
X007027Y008840D02*
X006917Y008840D01*
X006972Y008840D02*
X006972Y009170D01*
X006917Y009170D02*
X007027Y009170D01*
X006769Y008840D02*
X006549Y008840D01*
X006549Y009170D01*
X006401Y009060D02*
X006401Y008840D01*
X006401Y009005D02*
X006181Y009005D01*
X006181Y009060D02*
X006181Y008840D01*
X006032Y008895D02*
X005977Y008840D01*
X005867Y008840D01*
X005812Y008895D01*
X005812Y009115D01*
X005867Y009170D01*
X005977Y009170D01*
X006032Y009115D01*
X006181Y009060D02*
X006291Y009170D01*
X006401Y009060D01*
D15*
X006207Y000878D03*
X006207Y000871D03*
X006207Y000865D03*
X006207Y000859D03*
X006207Y000852D03*
X006207Y000846D03*
X006207Y000840D03*
X006207Y000833D03*
X006207Y000298D03*
X006207Y000292D03*
X006207Y000285D03*
X006207Y000279D03*
X006207Y000273D03*
X006207Y000267D03*
X006207Y000260D03*
X006207Y000254D03*
D16*
X004910Y000304D03*
X004910Y000821D03*
D17*
X005537Y000575D03*
X005474Y000304D03*
D18*
X006614Y000304D03*
D19*
X006119Y000411D03*
X006119Y000418D03*
X006315Y000758D03*
X006315Y000764D03*
X006315Y000770D03*
X005949Y000802D03*
X005949Y000808D03*
X005156Y000632D03*
X005149Y000626D03*
X007669Y000304D03*
D20*
X007499Y000411D03*
X006661Y000802D03*
X006327Y000701D03*
X006327Y000695D03*
X006327Y000689D03*
X005937Y000726D03*
X005937Y000733D03*
X005937Y000739D03*
X006604Y000355D03*
X005200Y000411D03*
X004733Y000311D03*
D21*
X005036Y000311D03*
X005162Y000644D03*
X005168Y000651D03*
X005168Y000657D03*
X005521Y000399D03*
X005521Y000393D03*
X005527Y000405D03*
X006119Y000399D03*
X006119Y000393D03*
X006308Y000796D03*
X006308Y000802D03*
X006655Y000821D03*
D22*
X007020Y000808D03*
X005565Y000752D03*
X005565Y000745D03*
X005565Y000739D03*
X005565Y000670D03*
X005565Y000663D03*
X005565Y000657D03*
X005565Y000651D03*
X005565Y000544D03*
X005477Y000311D03*
D23*
X005833Y000311D03*
X006122Y000537D03*
X005908Y000569D03*
X005908Y000575D03*
X005908Y000581D03*
X006356Y000537D03*
X006356Y000531D03*
X006576Y000462D03*
X006576Y000456D03*
X006689Y000701D03*
X007363Y000821D03*
X005020Y000361D03*
X005020Y000355D03*
X005020Y000348D03*
X004705Y000424D03*
X004705Y000430D03*
X004705Y000437D03*
D24*
X005149Y000481D03*
X005149Y000487D03*
X006119Y000311D03*
X007455Y000430D03*
X007455Y000437D03*
X007455Y000500D03*
X007455Y000506D03*
D25*
X007735Y000569D03*
X007735Y000386D03*
X007735Y000380D03*
X007162Y000676D03*
X006715Y000613D03*
X006715Y000607D03*
X006551Y000556D03*
X006551Y000550D03*
X006381Y000399D03*
X006381Y000393D03*
X006381Y000386D03*
X006393Y000311D03*
X006122Y000613D03*
X005883Y000437D03*
X005883Y000430D03*
X005852Y000342D03*
X005852Y000336D03*
X005845Y000330D03*
X004680Y000575D03*
X004680Y000581D03*
X004680Y000588D03*
D26*
X005133Y000525D03*
X005511Y000367D03*
X006122Y000367D03*
X005952Y000821D03*
X006311Y000815D03*
X006620Y000311D03*
X006967Y000676D03*
X006967Y000682D03*
X006967Y000689D03*
X006967Y000695D03*
X006967Y000701D03*
X006967Y000707D03*
X006967Y000714D03*
X006967Y000720D03*
X006967Y000726D03*
X006967Y000733D03*
D27*
X007026Y000821D03*
X007020Y000311D03*
X005546Y000569D03*
X005546Y000600D03*
X005546Y000802D03*
D28*
X005203Y000720D03*
X004718Y000361D03*
X004718Y000355D03*
X004718Y000348D03*
X005921Y000638D03*
X005921Y000644D03*
X005921Y000651D03*
X006343Y000613D03*
X006343Y000607D03*
X006343Y000600D03*
X006589Y000418D03*
X006589Y000411D03*
X006677Y000745D03*
X006677Y000752D03*
X007370Y000311D03*
D29*
X007685Y000311D03*
X007685Y000626D03*
X006664Y000789D03*
X006664Y000796D03*
X006330Y000682D03*
X006330Y000676D03*
X006330Y000670D03*
X005933Y000714D03*
X005933Y000720D03*
X006601Y000367D03*
X006601Y000361D03*
X005133Y000613D03*
X005033Y000317D03*
D30*
X004727Y000317D03*
X004878Y000676D03*
X004878Y000682D03*
X005930Y000695D03*
X005930Y000701D03*
X005930Y000707D03*
X006333Y000663D03*
X006333Y000657D03*
X006333Y000651D03*
X006598Y000380D03*
X006598Y000374D03*
X006667Y000783D03*
D31*
X005581Y000487D03*
X005581Y000481D03*
X005581Y000474D03*
X005581Y000468D03*
X005581Y000462D03*
X005581Y000456D03*
X005581Y000449D03*
X005581Y000443D03*
X005581Y000437D03*
X005581Y000430D03*
X005574Y000418D03*
X005574Y000411D03*
X005480Y000317D03*
X005140Y000424D03*
X005140Y000430D03*
X005133Y000418D03*
X005146Y000443D03*
X005146Y000449D03*
X005146Y000456D03*
D32*
X005086Y000594D03*
X004878Y000569D03*
X004878Y000563D03*
X004878Y000556D03*
X004689Y000531D03*
X004689Y000525D03*
X004689Y000519D03*
X005836Y000317D03*
X005893Y000481D03*
X005893Y000487D03*
X005893Y000493D03*
X006119Y000581D03*
X006119Y000588D03*
X006371Y000449D03*
X006371Y000443D03*
X006560Y000519D03*
X006560Y000525D03*
X006705Y000638D03*
X006705Y000644D03*
X007726Y000361D03*
D33*
X007637Y000632D03*
X007637Y000638D03*
X007637Y000644D03*
X007637Y000651D03*
X007637Y000657D03*
X007637Y000663D03*
X007637Y000670D03*
X007637Y000676D03*
X007637Y000682D03*
X007637Y000689D03*
X007637Y000695D03*
X007637Y000701D03*
X007637Y000707D03*
X007637Y000714D03*
X007637Y000720D03*
X007637Y000726D03*
X007637Y000733D03*
X006982Y000758D03*
X006119Y000323D03*
X006119Y000317D03*
X005496Y000336D03*
X005143Y000512D03*
D34*
X005212Y000745D03*
X004878Y000506D03*
X004878Y000500D03*
X004878Y000493D03*
X004670Y000632D03*
X004670Y000638D03*
X004670Y000644D03*
X004670Y000689D03*
X006119Y000651D03*
X006119Y000644D03*
X006119Y000638D03*
X006390Y000348D03*
X006390Y000342D03*
X006390Y000336D03*
X006390Y000330D03*
X006390Y000323D03*
X006390Y000317D03*
X006541Y000588D03*
X006541Y000594D03*
X006724Y000575D03*
X006724Y000569D03*
X007171Y000689D03*
X007744Y000537D03*
X007744Y000531D03*
X007744Y000525D03*
X007744Y000519D03*
X007744Y000437D03*
X007744Y000430D03*
X007744Y000424D03*
X007744Y000418D03*
D35*
X006620Y000317D03*
X006122Y000405D03*
X006311Y000777D03*
X006311Y000783D03*
X006311Y000789D03*
X005952Y000815D03*
X005159Y000638D03*
X005121Y000531D03*
D36*
X005556Y000556D03*
X005556Y000619D03*
X005556Y000783D03*
X007017Y000317D03*
D37*
X007367Y000317D03*
X007367Y000544D03*
X007713Y000607D03*
X007713Y000336D03*
X006693Y000689D03*
X006693Y000695D03*
X006573Y000474D03*
X006573Y000468D03*
X006359Y000512D03*
X006359Y000519D03*
X006359Y000525D03*
X006119Y000544D03*
X006119Y000550D03*
X005905Y000550D03*
X005905Y000556D03*
X005905Y000563D03*
X005080Y000544D03*
X005080Y000537D03*
X005023Y000380D03*
X005023Y000374D03*
X005023Y000367D03*
X004878Y000594D03*
X004878Y000600D03*
X004878Y000607D03*
X004878Y000613D03*
X004702Y000456D03*
X004702Y000449D03*
X004702Y000443D03*
D38*
X004721Y000342D03*
X004721Y000336D03*
X004721Y000330D03*
X005023Y000323D03*
X004878Y000657D03*
X004878Y000663D03*
X004878Y000670D03*
X005924Y000670D03*
X005924Y000663D03*
X005924Y000657D03*
X006340Y000626D03*
X006340Y000619D03*
X006592Y000405D03*
X006592Y000399D03*
X006674Y000758D03*
X006674Y000764D03*
X007694Y000317D03*
D39*
X007502Y000405D03*
X006670Y000770D03*
X006670Y000777D03*
X006337Y000644D03*
X006337Y000638D03*
X006337Y000632D03*
X006595Y000393D03*
X006595Y000386D03*
X005927Y000676D03*
X005927Y000682D03*
X005927Y000689D03*
X005196Y000714D03*
X005203Y000405D03*
X004724Y000323D03*
D40*
X005486Y000323D03*
X006998Y000777D03*
X007458Y000493D03*
X007458Y000487D03*
X007458Y000481D03*
X007458Y000474D03*
X007458Y000468D03*
X007458Y000462D03*
X007458Y000456D03*
X007458Y000449D03*
X007458Y000443D03*
D41*
X007351Y000411D03*
X007351Y000405D03*
X007351Y000336D03*
X007351Y000330D03*
X007729Y000367D03*
X007729Y000588D03*
X007729Y000739D03*
X007729Y000745D03*
X007729Y000815D03*
X007729Y000821D03*
X007156Y000670D03*
X006708Y000632D03*
X006708Y000626D03*
X006557Y000531D03*
X006374Y000437D03*
X006374Y000430D03*
X006374Y000424D03*
X006122Y000594D03*
X005889Y000474D03*
X005889Y000468D03*
X005889Y000462D03*
X005839Y000323D03*
X005209Y000739D03*
X004686Y000550D03*
X004686Y000544D03*
X004686Y000537D03*
D42*
X005946Y000783D03*
X005946Y000789D03*
X005946Y000796D03*
X006318Y000752D03*
X006318Y000745D03*
X006318Y000739D03*
X006122Y000424D03*
X006614Y000330D03*
X006614Y000323D03*
D43*
X007020Y000323D03*
X007026Y000815D03*
X005559Y000777D03*
X005559Y000770D03*
X005559Y000632D03*
X005559Y000626D03*
D44*
X005896Y000512D03*
X005896Y000506D03*
X005896Y000500D03*
X006122Y000575D03*
X006368Y000468D03*
X006368Y000462D03*
X006368Y000456D03*
X006563Y000506D03*
X006563Y000512D03*
X006702Y000651D03*
X006702Y000657D03*
X007357Y000323D03*
X007722Y000355D03*
X007722Y000594D03*
X005089Y000600D03*
X005089Y000607D03*
X005083Y000588D03*
X005083Y000581D03*
X005083Y000575D03*
X004693Y000512D03*
X004693Y000506D03*
X004693Y000500D03*
D45*
X004715Y000380D03*
X004715Y000374D03*
X004715Y000367D03*
X004878Y000638D03*
X004878Y000644D03*
X004878Y000651D03*
X005023Y000330D03*
X005918Y000619D03*
X005918Y000626D03*
X005918Y000632D03*
X006119Y000512D03*
X006346Y000581D03*
X006346Y000588D03*
X006346Y000594D03*
X006585Y000430D03*
X006585Y000424D03*
X006680Y000733D03*
X006680Y000739D03*
X007505Y000399D03*
X007700Y000323D03*
X007700Y000619D03*
D46*
X007448Y000525D03*
X005489Y000330D03*
X005149Y000500D03*
D47*
X005499Y000342D03*
X006122Y000330D03*
X007439Y000537D03*
D48*
X007023Y000537D03*
X007023Y000531D03*
X007023Y000525D03*
X007023Y000519D03*
X007023Y000512D03*
X007023Y000506D03*
X007023Y000500D03*
X007023Y000493D03*
X007023Y000487D03*
X007023Y000481D03*
X007023Y000474D03*
X007023Y000468D03*
X007023Y000462D03*
X007023Y000456D03*
X007023Y000449D03*
X007023Y000443D03*
X007023Y000437D03*
X007023Y000430D03*
X007023Y000424D03*
X007023Y000418D03*
X007023Y000411D03*
X007023Y000405D03*
X007023Y000399D03*
X007023Y000393D03*
X007023Y000386D03*
X007023Y000380D03*
X007023Y000374D03*
X007023Y000367D03*
X007023Y000361D03*
X007023Y000355D03*
X007023Y000348D03*
X007023Y000342D03*
X007023Y000336D03*
X007023Y000330D03*
X007023Y000544D03*
X007023Y000550D03*
X007023Y000556D03*
X007023Y000563D03*
X007023Y000569D03*
X007023Y000575D03*
X007023Y000581D03*
X007023Y000588D03*
X007023Y000594D03*
X007023Y000600D03*
X007023Y000607D03*
X007023Y000613D03*
X007023Y000619D03*
X007023Y000626D03*
X007023Y000632D03*
X007023Y000638D03*
X007023Y000644D03*
X007023Y000651D03*
X007023Y000657D03*
X007023Y000663D03*
X005562Y000644D03*
X005562Y000638D03*
X005562Y000550D03*
X005562Y000758D03*
X005562Y000764D03*
D49*
X005206Y000726D03*
X004878Y000632D03*
X004878Y000626D03*
X004878Y000619D03*
X004708Y000418D03*
X004708Y000411D03*
X004708Y000405D03*
X005911Y000588D03*
X005911Y000594D03*
X005911Y000600D03*
X006119Y000531D03*
X006119Y000525D03*
X006352Y000544D03*
X006352Y000550D03*
X006352Y000556D03*
X006579Y000449D03*
X006579Y000443D03*
X006686Y000707D03*
X006686Y000714D03*
X007707Y000613D03*
X007707Y000330D03*
D50*
X006683Y000720D03*
X006683Y000726D03*
X006582Y000437D03*
X006349Y000563D03*
X006349Y000569D03*
X006349Y000575D03*
X006122Y000519D03*
X005915Y000607D03*
X005915Y000613D03*
X005203Y000399D03*
X005020Y000342D03*
X005020Y000336D03*
X004711Y000386D03*
X004711Y000393D03*
X004711Y000399D03*
D51*
X005502Y000348D03*
X006119Y000342D03*
X006119Y000336D03*
X006308Y000821D03*
X006976Y000752D03*
D52*
X006655Y000815D03*
X006321Y000733D03*
X006321Y000726D03*
X006321Y000720D03*
X005943Y000764D03*
X005943Y000770D03*
X005943Y000777D03*
X006611Y000336D03*
X005143Y000619D03*
X004878Y000689D03*
D53*
X005940Y000745D03*
X005940Y000752D03*
X005940Y000758D03*
X006324Y000714D03*
X006324Y000707D03*
X006658Y000808D03*
X006607Y000348D03*
X006607Y000342D03*
D54*
X006554Y000537D03*
X006554Y000544D03*
X006711Y000619D03*
X006378Y000418D03*
X006378Y000411D03*
X006378Y000405D03*
X006119Y000600D03*
X006119Y000607D03*
X005886Y000456D03*
X005886Y000449D03*
X005886Y000443D03*
X005691Y000405D03*
X004878Y000537D03*
X004878Y000544D03*
X004878Y000550D03*
X004683Y000556D03*
X004683Y000563D03*
X004683Y000569D03*
X007348Y000399D03*
X007348Y000393D03*
X007348Y000386D03*
X007348Y000380D03*
X007348Y000374D03*
X007348Y000367D03*
X007348Y000361D03*
X007348Y000355D03*
X007348Y000348D03*
X007348Y000342D03*
X007505Y000544D03*
X007732Y000575D03*
X007732Y000581D03*
X007732Y000752D03*
X007732Y000758D03*
X007732Y000764D03*
X007732Y000770D03*
X007732Y000777D03*
X007732Y000783D03*
X007732Y000789D03*
X007732Y000796D03*
X007732Y000802D03*
X007732Y000808D03*
X007732Y000374D03*
D55*
X007716Y000342D03*
X007508Y000393D03*
X007363Y000550D03*
X007363Y000815D03*
X006696Y000682D03*
X006696Y000676D03*
X006570Y000487D03*
X006570Y000481D03*
X006362Y000493D03*
X006362Y000500D03*
X006362Y000506D03*
X006122Y000556D03*
X005902Y000544D03*
X005902Y000537D03*
X005902Y000531D03*
X005209Y000393D03*
X005033Y000411D03*
X005026Y000399D03*
X005026Y000393D03*
X005026Y000386D03*
X005077Y000550D03*
X005209Y000733D03*
X004699Y000474D03*
X004699Y000468D03*
X004699Y000462D03*
D56*
X004677Y000594D03*
X004677Y000600D03*
X004677Y000607D03*
X004878Y000531D03*
X004878Y000525D03*
X004878Y000519D03*
X004878Y000512D03*
X005212Y000386D03*
X005855Y000348D03*
X005861Y000355D03*
X005861Y000361D03*
X005867Y000374D03*
X005874Y000393D03*
X005874Y000399D03*
X005874Y000405D03*
X005880Y000411D03*
X005880Y000418D03*
X005880Y000424D03*
X006119Y000619D03*
X006119Y000626D03*
X006384Y000380D03*
X006384Y000374D03*
X006384Y000367D03*
X006548Y000563D03*
X006548Y000569D03*
X006718Y000594D03*
X006718Y000600D03*
X007511Y000386D03*
X007738Y000393D03*
X007738Y000399D03*
X007738Y000556D03*
X007738Y000563D03*
D57*
X006973Y000745D03*
X006122Y000348D03*
X005140Y000519D03*
D58*
X005080Y000556D03*
X005080Y000563D03*
X005080Y000569D03*
X004878Y000575D03*
X004878Y000581D03*
X004878Y000588D03*
X004696Y000493D03*
X004696Y000487D03*
X004696Y000481D03*
X005030Y000405D03*
X005899Y000519D03*
X005899Y000525D03*
X006119Y000563D03*
X006119Y000569D03*
X006365Y000487D03*
X006365Y000481D03*
X006365Y000474D03*
X006567Y000493D03*
X006567Y000500D03*
X006699Y000663D03*
X006699Y000670D03*
X007360Y000670D03*
X007360Y000676D03*
X007360Y000682D03*
X007360Y000689D03*
X007360Y000695D03*
X007360Y000701D03*
X007360Y000707D03*
X007360Y000714D03*
X007360Y000720D03*
X007360Y000726D03*
X007360Y000733D03*
X007360Y000739D03*
X007360Y000745D03*
X007360Y000752D03*
X007360Y000758D03*
X007360Y000764D03*
X007360Y000770D03*
X007360Y000777D03*
X007360Y000783D03*
X007360Y000789D03*
X007360Y000796D03*
X007360Y000802D03*
X007360Y000808D03*
X007360Y000663D03*
X007360Y000657D03*
X007360Y000651D03*
X007360Y000644D03*
X007360Y000638D03*
X007360Y000632D03*
X007360Y000626D03*
X007360Y000619D03*
X007360Y000613D03*
X007360Y000607D03*
X007360Y000600D03*
X007360Y000594D03*
X007360Y000588D03*
X007360Y000581D03*
X007360Y000575D03*
X007360Y000569D03*
X007360Y000563D03*
X007360Y000556D03*
X007719Y000600D03*
X007719Y000348D03*
D59*
X006970Y000670D03*
X006970Y000739D03*
X006119Y000361D03*
X006119Y000355D03*
X005508Y000355D03*
X005508Y000361D03*
D60*
X005694Y000399D03*
X005864Y000367D03*
X005870Y000380D03*
X005870Y000386D03*
X006122Y000632D03*
X006387Y000361D03*
X006387Y000355D03*
X006544Y000575D03*
X006544Y000581D03*
X006721Y000581D03*
X006721Y000588D03*
X007168Y000682D03*
X007741Y000550D03*
X007741Y000544D03*
X007741Y000411D03*
X007741Y000405D03*
X004674Y000613D03*
X004674Y000619D03*
X004674Y000626D03*
D61*
X005168Y000689D03*
X005515Y000374D03*
X006119Y000374D03*
X006119Y000380D03*
X006308Y000808D03*
D62*
X006122Y000386D03*
X005518Y000386D03*
X005518Y000380D03*
X005171Y000663D03*
X005171Y000670D03*
X005171Y000676D03*
X005171Y000682D03*
D63*
X005694Y000393D03*
X006532Y000626D03*
X006532Y000632D03*
X006733Y000537D03*
X006733Y000531D03*
D64*
X006749Y000474D03*
X006749Y000468D03*
X006516Y000689D03*
X006516Y000695D03*
X006516Y000701D03*
X006119Y000714D03*
X006119Y000720D03*
X006119Y000726D03*
X007196Y000714D03*
X004878Y000424D03*
X004878Y000418D03*
X004878Y000411D03*
D65*
X005146Y000493D03*
X006992Y000770D03*
X007452Y000519D03*
X007452Y000512D03*
X007452Y000424D03*
X007452Y000418D03*
D66*
X007007Y000789D03*
X005578Y000506D03*
X005578Y000500D03*
X005578Y000493D03*
X005578Y000424D03*
X005143Y000437D03*
D67*
X004878Y000437D03*
X004878Y000443D03*
X004878Y000430D03*
X006119Y000695D03*
X006119Y000701D03*
X006119Y000707D03*
X006522Y000670D03*
X006522Y000663D03*
X006743Y000500D03*
X006743Y000493D03*
X007190Y000707D03*
D68*
X006727Y000563D03*
X006727Y000556D03*
X006538Y000600D03*
X006538Y000607D03*
X007748Y000512D03*
X007748Y000506D03*
X007748Y000500D03*
X007748Y000493D03*
X007748Y000487D03*
X007748Y000481D03*
X007748Y000474D03*
X007748Y000468D03*
X007748Y000462D03*
X007748Y000456D03*
X007748Y000449D03*
X007748Y000443D03*
X004667Y000651D03*
X004667Y000657D03*
X004667Y000663D03*
X004667Y000670D03*
X004667Y000676D03*
X004667Y000682D03*
D69*
X004878Y000468D03*
X004878Y000462D03*
X004878Y000456D03*
X004878Y000449D03*
X006119Y000676D03*
X006119Y000682D03*
X006119Y000689D03*
X006529Y000644D03*
X006529Y000638D03*
X006737Y000525D03*
X006737Y000519D03*
X007184Y000701D03*
D70*
X007001Y000783D03*
X005149Y000474D03*
X005149Y000468D03*
X005149Y000462D03*
D71*
X004878Y000474D03*
X004878Y000481D03*
X004878Y000487D03*
X006119Y000657D03*
X006119Y000663D03*
X006119Y000670D03*
X006535Y000619D03*
X006535Y000613D03*
X006730Y000550D03*
X006730Y000544D03*
X007178Y000695D03*
D72*
X006746Y000487D03*
X006746Y000481D03*
X006519Y000676D03*
X006519Y000682D03*
D73*
X006985Y000764D03*
X007445Y000531D03*
X005146Y000506D03*
D74*
X006526Y000651D03*
X006526Y000657D03*
X006740Y000512D03*
X006740Y000506D03*
D75*
X007011Y000796D03*
X005574Y000519D03*
X005574Y000512D03*
D76*
X005571Y000525D03*
D77*
X005568Y000531D03*
X005568Y000537D03*
X005568Y000676D03*
X005568Y000682D03*
X005568Y000689D03*
X005568Y000695D03*
X005568Y000701D03*
X005568Y000707D03*
X005568Y000714D03*
X005568Y000720D03*
X005568Y000726D03*
X005568Y000733D03*
X007017Y000802D03*
D78*
X005552Y000789D03*
X005552Y000613D03*
X005552Y000563D03*
D79*
X005524Y000581D03*
D80*
X005533Y000588D03*
X005533Y000815D03*
D81*
X005540Y000808D03*
X005540Y000594D03*
D82*
X005549Y000607D03*
X005549Y000796D03*
D83*
X004963Y000701D03*
X004963Y000695D03*
D84*
X004960Y000707D03*
D85*
X004872Y000714D03*
X004872Y000783D03*
D86*
X004869Y000777D03*
X004869Y000770D03*
X004869Y000764D03*
X004869Y000758D03*
X004869Y000752D03*
X004869Y000745D03*
X004869Y000739D03*
X004869Y000733D03*
X004869Y000726D03*
X004869Y000720D03*
D87*
X004875Y000789D03*
D88*
X004878Y000796D03*
D89*
X004885Y000802D03*
D90*
X004891Y000808D03*
D91*
X004897Y000815D03*
D92*
X005533Y000821D03*
D93*
X004922Y000827D03*
D94*
X006529Y000827D03*
D95*
X008122Y001071D02*
X008122Y002512D01*
X008449Y002512D01*
X008122Y002512D02*
X004382Y002512D01*
X004382Y001071D01*
X008122Y001071D01*
X008811Y003532D02*
X008811Y006611D01*
X008449Y007630D02*
X004056Y007630D01*
X003292Y006941D02*
X002252Y006941D01*
X002252Y003201D01*
X003292Y003201D01*
X003693Y003532D02*
X003693Y006611D01*
X004056Y002512D02*
X004382Y002512D01*
D96*
X005282Y003227D03*
X005075Y003627D03*
X006885Y003227D03*
X006995Y003627D03*
D97*
X006760Y003323D03*
X007037Y004442D03*
X008004Y004525D03*
X007727Y005713D03*
X007727Y006003D03*
X005779Y004912D03*
X004564Y003240D03*
D98*
X005282Y003240D03*
X005213Y004442D03*
X005227Y004898D03*
X005779Y004871D03*
X006526Y005990D03*
X005904Y006155D03*
X006885Y003572D03*
D99*
X005690Y003240D03*
X005289Y003848D03*
X005220Y004456D03*
X004764Y005050D03*
X006560Y005962D03*
X006601Y005934D03*
X006974Y006003D03*
X007624Y005658D03*
X007638Y006059D03*
X007430Y004815D03*
X007113Y004815D03*
X007113Y004829D03*
X007113Y004843D03*
X008273Y004843D03*
X008273Y004829D03*
X008273Y004815D03*
D100*
X008211Y004774D03*
X008211Y004760D03*
X008335Y004857D03*
X007962Y004829D03*
X007879Y004428D03*
X007423Y004525D03*
X007050Y004760D03*
X007050Y004774D03*
X006802Y004829D03*
X006719Y004428D03*
X006222Y004442D03*
X005862Y004788D03*
X005849Y004801D03*
X005600Y004774D03*
X005337Y004525D03*
X005227Y004912D03*
X004578Y004912D03*
X004564Y004884D03*
X004564Y004622D03*
X004564Y004608D03*
X004578Y004594D03*
X004757Y004428D03*
X004840Y003752D03*
X004854Y003724D03*
X004840Y003586D03*
X005075Y003461D03*
X005089Y003420D03*
X005089Y003406D03*
X005089Y003682D03*
X005116Y003724D03*
X005862Y003765D03*
X005876Y003752D03*
X005904Y003489D03*
X005918Y003461D03*
X005918Y003379D03*
X005904Y003351D03*
X006470Y003240D03*
X007050Y003379D03*
X007050Y003392D03*
X007050Y003406D03*
X007050Y003420D03*
X007050Y003434D03*
X007050Y003448D03*
X007009Y003641D03*
X007023Y003752D03*
X006968Y005713D03*
X006691Y005727D03*
X006705Y005838D03*
X006456Y006045D03*
X006470Y006169D03*
X005489Y005921D03*
X005476Y005713D03*
X005213Y005907D03*
X004951Y005644D03*
X004743Y006003D03*
X008045Y005838D03*
X008073Y005796D03*
X008114Y005727D03*
X008156Y005658D03*
X008100Y006003D03*
X008114Y006017D03*
D101*
X007955Y005893D03*
X007638Y006072D03*
X007624Y005644D03*
X007859Y004884D03*
X006629Y005907D03*
X006615Y005921D03*
X005897Y006142D03*
X006215Y004553D03*
X006463Y003351D03*
X006878Y003240D03*
D102*
X006539Y003392D03*
X006553Y003434D03*
X006553Y003448D03*
X006567Y003461D03*
X006567Y003475D03*
X006567Y003489D03*
X006581Y003503D03*
X006581Y003517D03*
X006581Y003531D03*
X006595Y003544D03*
X006595Y003558D03*
X006595Y003572D03*
X006608Y003600D03*
X006360Y003503D03*
X006360Y003489D03*
X006374Y003461D03*
X006374Y003448D03*
X006387Y003420D03*
X006387Y003406D03*
X006401Y003379D03*
X006401Y003365D03*
X006332Y003572D03*
X006332Y003586D03*
X006304Y003655D03*
X006304Y003669D03*
X006304Y003682D03*
X005890Y003682D03*
X005890Y003669D03*
X005890Y003696D03*
X005890Y003710D03*
X005890Y003724D03*
X005876Y003641D03*
X005600Y003641D03*
X005600Y003655D03*
X005600Y003669D03*
X005600Y003682D03*
X005600Y003696D03*
X005600Y003710D03*
X005600Y003724D03*
X005600Y003738D03*
X005600Y003752D03*
X005600Y003765D03*
X005600Y003503D03*
X005600Y003489D03*
X005600Y003475D03*
X005600Y003461D03*
X005600Y003448D03*
X005600Y003434D03*
X005600Y003420D03*
X005600Y003406D03*
X005600Y003392D03*
X005600Y003379D03*
X005600Y003365D03*
X005600Y003351D03*
X005600Y003337D03*
X004564Y003337D03*
X004564Y003323D03*
X004564Y003309D03*
X004564Y003296D03*
X004564Y003282D03*
X004564Y003268D03*
X004564Y003254D03*
X004564Y003351D03*
X004564Y003365D03*
X004564Y003379D03*
X004564Y003392D03*
X004564Y003406D03*
X004564Y003420D03*
X004564Y003434D03*
X004564Y003448D03*
X004564Y003558D03*
X004564Y003572D03*
X004564Y003586D03*
X004564Y003600D03*
X004564Y003641D03*
X004564Y003655D03*
X004564Y003669D03*
X004564Y003682D03*
X004564Y003696D03*
X004564Y003710D03*
X004564Y003724D03*
X004564Y003738D03*
X004564Y003752D03*
X004564Y003765D03*
X005365Y004553D03*
X005393Y004608D03*
X005393Y004622D03*
X005393Y004636D03*
X005393Y004650D03*
X005393Y004663D03*
X005393Y004677D03*
X005393Y004691D03*
X005393Y004705D03*
X005393Y004719D03*
X005393Y004732D03*
X005586Y004732D03*
X005586Y004719D03*
X005586Y004705D03*
X005586Y004691D03*
X005586Y004677D03*
X005586Y004663D03*
X005586Y004650D03*
X005586Y004636D03*
X005586Y004622D03*
X005586Y004608D03*
X005586Y004594D03*
X005586Y004580D03*
X005586Y004567D03*
X005586Y004553D03*
X005586Y004539D03*
X005586Y004525D03*
X005586Y004511D03*
X005586Y004498D03*
X005586Y004484D03*
X005586Y004470D03*
X005586Y004456D03*
X005876Y004456D03*
X005876Y004470D03*
X005876Y004484D03*
X005876Y004498D03*
X005876Y004511D03*
X005876Y004525D03*
X005876Y004539D03*
X005876Y004553D03*
X005876Y004567D03*
X005876Y004580D03*
X005876Y004594D03*
X005876Y004608D03*
X005876Y004622D03*
X005876Y004636D03*
X005876Y004650D03*
X005876Y004663D03*
X005876Y004677D03*
X005876Y004691D03*
X005876Y004705D03*
X005876Y004719D03*
X005876Y004732D03*
X005876Y004746D03*
X006083Y004774D03*
X006083Y004788D03*
X006097Y004746D03*
X006097Y004732D03*
X006111Y004705D03*
X006111Y004691D03*
X006125Y004663D03*
X006125Y004650D03*
X006139Y004622D03*
X006139Y004608D03*
X006153Y004580D03*
X006153Y004567D03*
X006291Y004594D03*
X006304Y004636D03*
X006304Y004650D03*
X006318Y004663D03*
X006318Y004677D03*
X006318Y004691D03*
X006332Y004705D03*
X006332Y004719D03*
X006332Y004732D03*
X006360Y004801D03*
X006360Y004815D03*
X006374Y004843D03*
X006374Y004857D03*
X006374Y004871D03*
X006374Y004884D03*
X006567Y004801D03*
X006553Y004774D03*
X006539Y004732D03*
X006539Y004636D03*
X006539Y004622D03*
X006539Y004608D03*
X006539Y004594D03*
X006553Y004580D03*
X006553Y004567D03*
X006843Y004732D03*
X006843Y004746D03*
X006843Y004760D03*
X006829Y004788D03*
X006829Y004801D03*
X006816Y004815D03*
X006705Y004912D03*
X007189Y004884D03*
X007410Y004912D03*
X007410Y004953D03*
X007410Y004995D03*
X007410Y004801D03*
X007410Y004788D03*
X007410Y004774D03*
X007410Y004760D03*
X007410Y004746D03*
X007410Y004732D03*
X007410Y004719D03*
X007410Y004705D03*
X007410Y004691D03*
X007410Y004677D03*
X007410Y004663D03*
X007410Y004650D03*
X007410Y004636D03*
X007410Y004622D03*
X007410Y004608D03*
X007410Y004594D03*
X007410Y004580D03*
X007410Y004567D03*
X007410Y004553D03*
X007700Y004594D03*
X007700Y004608D03*
X007700Y004622D03*
X007700Y004636D03*
X007714Y004580D03*
X007714Y004567D03*
X007700Y004732D03*
X007714Y004774D03*
X007976Y004815D03*
X007990Y004801D03*
X007990Y004788D03*
X008197Y004732D03*
X008197Y004719D03*
X008197Y004705D03*
X008197Y004691D03*
X008197Y004677D03*
X008197Y004663D03*
X008197Y004650D03*
X008197Y004636D03*
X008197Y004622D03*
X008197Y004608D03*
X008197Y004594D03*
X008197Y004580D03*
X008197Y004567D03*
X008197Y004553D03*
X008197Y004539D03*
X008197Y004525D03*
X008197Y004511D03*
X008197Y004498D03*
X008197Y004484D03*
X008197Y004470D03*
X008197Y004456D03*
X008349Y004884D03*
X008169Y005630D03*
X007893Y005644D03*
X007893Y005658D03*
X007893Y005672D03*
X007893Y005686D03*
X007893Y005699D03*
X007893Y005713D03*
X007893Y005727D03*
X007893Y005741D03*
X007893Y005755D03*
X007893Y005769D03*
X007893Y005782D03*
X007893Y005796D03*
X007893Y005810D03*
X007893Y005824D03*
X007893Y005838D03*
X007893Y005851D03*
X007893Y005921D03*
X007893Y005934D03*
X007893Y005948D03*
X007893Y005962D03*
X007893Y005976D03*
X007893Y005990D03*
X007893Y006003D03*
X007893Y006017D03*
X007893Y006031D03*
X007893Y006045D03*
X007893Y006059D03*
X007893Y006072D03*
X007893Y006086D03*
X007893Y006100D03*
X007893Y006114D03*
X007893Y006128D03*
X007893Y006142D03*
X007893Y006155D03*
X007893Y006169D03*
X007893Y006183D03*
X007893Y006197D03*
X007893Y006211D03*
X007893Y006224D03*
X007893Y006238D03*
X007893Y006252D03*
X007893Y006266D03*
X007893Y006280D03*
X008059Y005948D03*
X008045Y005934D03*
X008031Y005921D03*
X007493Y005934D03*
X007493Y005948D03*
X007493Y005962D03*
X007479Y005921D03*
X007479Y005907D03*
X007479Y005893D03*
X007479Y005879D03*
X007479Y005865D03*
X007479Y005851D03*
X007479Y005838D03*
X007479Y005824D03*
X007479Y005810D03*
X007479Y005796D03*
X007493Y005769D03*
X007493Y005755D03*
X007258Y005755D03*
X007258Y005769D03*
X007258Y005782D03*
X007258Y005796D03*
X007258Y005810D03*
X007258Y005824D03*
X007258Y005838D03*
X007258Y005851D03*
X007258Y005865D03*
X007258Y005879D03*
X007258Y005893D03*
X007258Y005907D03*
X007258Y005921D03*
X007258Y005934D03*
X007258Y005948D03*
X007258Y005962D03*
X007258Y005976D03*
X007258Y005990D03*
X007258Y006003D03*
X007258Y006017D03*
X007258Y006031D03*
X007258Y006045D03*
X007258Y006059D03*
X007258Y006072D03*
X006954Y006100D03*
X006954Y006114D03*
X006954Y006128D03*
X006954Y006142D03*
X006954Y006155D03*
X006954Y006169D03*
X006954Y006183D03*
X006954Y005990D03*
X006954Y005976D03*
X006954Y005962D03*
X006954Y005948D03*
X006954Y005934D03*
X006954Y005921D03*
X006954Y005907D03*
X006954Y005893D03*
X006954Y005879D03*
X006954Y005865D03*
X006954Y005851D03*
X006954Y005838D03*
X006954Y005824D03*
X006954Y005810D03*
X006954Y005796D03*
X006954Y005782D03*
X006954Y005769D03*
X006954Y005755D03*
X006954Y005741D03*
X007258Y005741D03*
X007258Y005727D03*
X007258Y005713D03*
X007258Y005699D03*
X007258Y005686D03*
X007258Y005672D03*
X007258Y005658D03*
X007258Y005644D03*
X006429Y005713D03*
X006443Y006086D03*
X006443Y006100D03*
X006443Y006114D03*
X006443Y006128D03*
X005959Y006128D03*
X005959Y006114D03*
X005959Y006100D03*
X005959Y006086D03*
X005959Y006072D03*
X005959Y006059D03*
X005959Y006045D03*
X005959Y006031D03*
X005959Y006017D03*
X005959Y006003D03*
X005959Y005990D03*
X005959Y005976D03*
X005959Y005962D03*
X005959Y005948D03*
X005959Y005934D03*
X005959Y005921D03*
X005959Y005907D03*
X005959Y005893D03*
X005959Y005879D03*
X005959Y005865D03*
X005959Y005755D03*
X005959Y005741D03*
X005959Y005727D03*
X005959Y005713D03*
X005959Y005699D03*
X005959Y005686D03*
X005959Y005672D03*
X005959Y005658D03*
X005959Y005644D03*
X005710Y005921D03*
X005724Y005948D03*
X005766Y006017D03*
X005780Y006045D03*
X005821Y006114D03*
X005393Y006017D03*
X005213Y006059D03*
X005213Y006072D03*
X005227Y006100D03*
X005227Y006114D03*
X005199Y006017D03*
X005199Y006003D03*
X005199Y005893D03*
X005199Y005879D03*
X005199Y005865D03*
X005199Y005851D03*
X005199Y005838D03*
X005199Y005824D03*
X005199Y005810D03*
X005213Y005796D03*
X005213Y005782D03*
X005213Y005769D03*
X005213Y005755D03*
X005227Y005741D03*
X005351Y005617D03*
X005503Y005755D03*
X005503Y005769D03*
X004951Y005630D03*
X005075Y004788D03*
X005061Y004760D03*
X005061Y004746D03*
X005047Y004732D03*
X005047Y004719D03*
X005047Y004705D03*
X005047Y004691D03*
X005047Y004677D03*
X005047Y004663D03*
X005047Y004650D03*
X005047Y004636D03*
X005047Y004622D03*
X005047Y004608D03*
X005061Y004580D03*
X005061Y004567D03*
X005586Y004746D03*
X006056Y004857D03*
X006056Y004871D03*
X006056Y004884D03*
X006912Y003876D03*
X007023Y003669D03*
D103*
X006912Y003544D03*
X006705Y004871D03*
X006539Y005644D03*
X007631Y006045D03*
X007866Y004871D03*
X005393Y006224D03*
X005227Y004884D03*
X005282Y003254D03*
D104*
X005704Y003254D03*
X005704Y003848D03*
X005289Y003834D03*
X004764Y005036D03*
X006546Y005658D03*
X006574Y006183D03*
X006574Y006197D03*
X006698Y004843D03*
D105*
X006588Y004525D03*
X007057Y004788D03*
X007486Y004442D03*
X007748Y004525D03*
X008218Y004788D03*
X007527Y005713D03*
X007527Y006003D03*
X006698Y005851D03*
X006671Y005713D03*
X005607Y004788D03*
X005344Y004815D03*
X004612Y004953D03*
X004584Y004580D03*
X005137Y003752D03*
X005123Y003738D03*
X006463Y003254D03*
X007002Y003779D03*
X007016Y003765D03*
X004944Y005658D03*
X005275Y006169D03*
D106*
X005386Y006211D03*
X005358Y005658D03*
X006588Y006224D03*
X007624Y006031D03*
X007624Y005672D03*
X007430Y004898D03*
X007430Y004884D03*
X007430Y004871D03*
X007430Y004857D03*
X007430Y004843D03*
X007430Y004829D03*
X007886Y004456D03*
X006905Y003834D03*
X006919Y003531D03*
X006878Y003254D03*
X006726Y004456D03*
X004654Y003475D03*
D107*
X005282Y003268D03*
X005710Y003572D03*
X005710Y003586D03*
X005710Y003834D03*
X004757Y004470D03*
X006719Y004470D03*
D108*
X006705Y004498D03*
X006705Y004511D03*
X005724Y003821D03*
X005724Y003600D03*
X005724Y003558D03*
X005724Y003268D03*
X005282Y003282D03*
X005282Y003807D03*
X005213Y004498D03*
X004757Y004484D03*
X004757Y005009D03*
X005324Y005990D03*
X006553Y005686D03*
D109*
X006491Y006017D03*
X005925Y006224D03*
X005925Y006238D03*
X007030Y005644D03*
X006215Y004498D03*
X006215Y004484D03*
X006215Y004470D03*
X006463Y003296D03*
X006463Y003282D03*
X006463Y003268D03*
D110*
X006885Y003268D03*
X007879Y004470D03*
X005365Y005686D03*
X005227Y004857D03*
X005213Y004484D03*
X004674Y003834D03*
X004674Y003503D03*
D111*
X005275Y003296D03*
X005731Y003282D03*
X005731Y003793D03*
X005731Y003807D03*
X005275Y003793D03*
X005220Y004511D03*
X005220Y004829D03*
X005717Y004843D03*
X004750Y004995D03*
X004750Y004498D03*
X006560Y005699D03*
D112*
X005358Y005699D03*
X004681Y003821D03*
X006905Y003807D03*
X006905Y003793D03*
X006892Y003282D03*
X007872Y004484D03*
D113*
X005724Y004815D03*
X005724Y004829D03*
X004743Y004511D03*
X004702Y003779D03*
X005268Y003779D03*
X005738Y003779D03*
X005738Y003544D03*
X005738Y003296D03*
X005268Y003309D03*
X005337Y005962D03*
X005337Y005976D03*
D114*
X005227Y004843D03*
X004688Y003517D03*
X006899Y003296D03*
X007866Y004498D03*
X007866Y004511D03*
D115*
X007845Y004650D03*
X006684Y004650D03*
X005745Y003531D03*
X005745Y003309D03*
X005261Y003323D03*
X004736Y004525D03*
X005344Y005948D03*
D116*
X005413Y006252D03*
X005911Y006183D03*
X005911Y006169D03*
X006505Y006003D03*
X006657Y005893D03*
X006588Y006252D03*
X007016Y005699D03*
X007016Y005686D03*
X007016Y005672D03*
X007472Y004511D03*
X007472Y004498D03*
X007472Y004484D03*
X006215Y004511D03*
X006215Y004525D03*
X006215Y004539D03*
X006463Y003337D03*
X006463Y003323D03*
X006463Y003309D03*
D117*
X006905Y003309D03*
X004695Y003531D03*
X004695Y003544D03*
X004695Y003793D03*
X004695Y003807D03*
D118*
X005752Y003517D03*
X005752Y003323D03*
X006691Y004663D03*
X006691Y004677D03*
X006691Y004691D03*
X006691Y004705D03*
X006691Y004719D03*
X007852Y004719D03*
X007852Y004705D03*
X007852Y004691D03*
X007852Y004677D03*
X007852Y004663D03*
X005351Y005934D03*
D119*
X004937Y005686D03*
X004937Y005672D03*
X004591Y006224D03*
X004591Y006238D03*
X004591Y004567D03*
X004605Y004553D03*
X005130Y003351D03*
X005890Y003337D03*
X005890Y003503D03*
X007009Y003323D03*
X006691Y005865D03*
D120*
X006671Y005879D03*
X007624Y005630D03*
X007638Y006086D03*
X007071Y004801D03*
X007486Y004456D03*
X008232Y004801D03*
X005621Y004801D03*
X004626Y004539D03*
X005151Y003765D03*
X005151Y003337D03*
X004930Y005699D03*
X004930Y005713D03*
X004598Y006211D03*
D121*
X005206Y006045D03*
X005206Y006031D03*
X005220Y006086D03*
X005676Y005865D03*
X005690Y005879D03*
X005690Y005893D03*
X005704Y005907D03*
X005717Y005934D03*
X005731Y005962D03*
X005745Y005976D03*
X005745Y005990D03*
X005759Y006003D03*
X005773Y006031D03*
X005814Y006100D03*
X005828Y006128D03*
X006049Y004898D03*
X006380Y004898D03*
X006560Y004788D03*
X006546Y004760D03*
X006546Y004746D03*
X006298Y004622D03*
X006298Y004608D03*
X006284Y004580D03*
X006284Y004567D03*
X006836Y004774D03*
X007196Y004898D03*
X007707Y004760D03*
X007707Y004746D03*
X007486Y004428D03*
X008190Y004857D03*
X008190Y004871D03*
X008190Y004884D03*
X008356Y004898D03*
X007624Y005617D03*
X007638Y006100D03*
X007251Y006183D03*
X007251Y006266D03*
X005579Y004884D03*
X005579Y004871D03*
X005579Y004857D03*
X004888Y004539D03*
X005413Y003765D03*
X005413Y003337D03*
X005883Y003655D03*
X006298Y003696D03*
X006546Y003420D03*
X006546Y003406D03*
X006532Y003379D03*
X006532Y003365D03*
X006781Y003779D03*
D122*
X006753Y003752D03*
X006740Y003337D03*
X007748Y005990D03*
D123*
X007030Y005630D03*
X006477Y006031D03*
X005786Y004898D03*
X006215Y004456D03*
X005096Y004525D03*
X005109Y003379D03*
X007030Y003337D03*
X007044Y003365D03*
X007044Y003461D03*
X007030Y003475D03*
D124*
X005427Y003351D03*
X005427Y003752D03*
X004902Y004553D03*
X004902Y004953D03*
X005579Y004898D03*
X006408Y005727D03*
X007251Y006169D03*
X007251Y006280D03*
X008190Y004898D03*
X008356Y004912D03*
D125*
X007569Y004525D03*
X006740Y003738D03*
X006726Y003351D03*
X004930Y004580D03*
X006726Y006142D03*
X007748Y005976D03*
X007762Y005755D03*
D126*
X008142Y005686D03*
X008142Y006059D03*
X007175Y004857D03*
X005931Y006252D03*
X005241Y005713D03*
X005103Y004815D03*
X004550Y004829D03*
X004550Y004663D03*
X005103Y003710D03*
X004826Y003572D03*
X005103Y003392D03*
X007037Y003351D03*
D127*
X007023Y003489D03*
X005116Y003365D03*
X004812Y003558D03*
X004826Y003765D03*
X005227Y005921D03*
D128*
X006394Y005741D03*
X006712Y006155D03*
X004916Y004567D03*
X005441Y003738D03*
X005441Y003365D03*
D129*
X005082Y003434D03*
X005082Y003448D03*
X005068Y003475D03*
X005068Y003489D03*
X005068Y003503D03*
X005068Y003517D03*
X005068Y003531D03*
X005068Y003544D03*
X005068Y003558D03*
X005068Y003572D03*
X005068Y003586D03*
X005068Y003600D03*
X005082Y003641D03*
X005082Y003655D03*
X005082Y003669D03*
X005096Y003696D03*
X004861Y003696D03*
X004861Y003682D03*
X004861Y003669D03*
X004861Y003655D03*
X004861Y003641D03*
X004847Y003600D03*
X004861Y003710D03*
X004847Y003738D03*
X005289Y003876D03*
X005220Y004428D03*
X005082Y004539D03*
X005068Y004553D03*
X005054Y004594D03*
X005068Y004774D03*
X005082Y004801D03*
X005358Y004801D03*
X005372Y004788D03*
X005386Y004746D03*
X005372Y004567D03*
X005358Y004539D03*
X005593Y004760D03*
X005869Y004760D03*
X005869Y004774D03*
X006063Y004843D03*
X006077Y004801D03*
X006090Y004760D03*
X006104Y004719D03*
X006118Y004677D03*
X006132Y004636D03*
X006146Y004594D03*
X006353Y004788D03*
X006367Y004829D03*
X006574Y004815D03*
X006588Y004829D03*
X006560Y004553D03*
X006574Y004539D03*
X007044Y004746D03*
X007182Y004871D03*
X007417Y004539D03*
X007721Y004553D03*
X007734Y004539D03*
X007734Y004815D03*
X007748Y004829D03*
X008204Y004746D03*
X008342Y004871D03*
X008163Y005644D03*
X008149Y005672D03*
X008135Y005699D03*
X008121Y005713D03*
X008107Y005741D03*
X008094Y005755D03*
X008094Y005769D03*
X008080Y005782D03*
X008066Y005810D03*
X008052Y005824D03*
X008038Y005851D03*
X008066Y005962D03*
X008080Y005976D03*
X008094Y005990D03*
X008121Y006031D03*
X008135Y006045D03*
X008149Y006072D03*
X007513Y005990D03*
X007499Y005976D03*
X007486Y005782D03*
X007499Y005741D03*
X007513Y005727D03*
X007251Y006197D03*
X007251Y006211D03*
X007251Y006224D03*
X007251Y006238D03*
X007251Y006252D03*
X006712Y005824D03*
X006712Y005810D03*
X006712Y005796D03*
X006712Y005782D03*
X006712Y005769D03*
X006698Y005755D03*
X006698Y005741D03*
X006546Y005617D03*
X006961Y005727D03*
X006450Y006059D03*
X006450Y006072D03*
X006450Y006142D03*
X006463Y006155D03*
X006588Y006266D03*
X005510Y005893D03*
X005510Y005879D03*
X005496Y005907D03*
X005496Y005741D03*
X005482Y005727D03*
X005234Y005727D03*
X004833Y005824D03*
X004833Y005838D03*
X004819Y005851D03*
X004819Y005865D03*
X004806Y005879D03*
X004806Y005893D03*
X004792Y005907D03*
X004792Y005921D03*
X004778Y005934D03*
X004778Y005948D03*
X004764Y005962D03*
X004764Y005976D03*
X004750Y005990D03*
X004736Y006017D03*
X004723Y006031D03*
X004723Y006045D03*
X004709Y006059D03*
X004709Y006072D03*
X004695Y006086D03*
X004695Y006100D03*
X004584Y006252D03*
X005248Y006142D03*
X005261Y006155D03*
X005413Y006266D03*
X004764Y005078D03*
X004571Y004898D03*
X004557Y004871D03*
X004557Y004857D03*
X004557Y004843D03*
X004543Y004815D03*
X004543Y004801D03*
X004543Y004788D03*
X004543Y004774D03*
X004543Y004760D03*
X004543Y004746D03*
X004543Y004732D03*
X004543Y004719D03*
X004543Y004705D03*
X004543Y004691D03*
X004543Y004677D03*
X004557Y004650D03*
X004557Y004636D03*
X005883Y003738D03*
X005911Y003475D03*
X005925Y003448D03*
X005925Y003434D03*
X005925Y003420D03*
X005925Y003406D03*
X005925Y003392D03*
X005911Y003365D03*
X006353Y003517D03*
X006339Y003558D03*
X006325Y003600D03*
X006311Y003641D03*
X006367Y003475D03*
X006380Y003434D03*
X006394Y003392D03*
X006602Y003586D03*
X007016Y003655D03*
X007030Y003682D03*
X007030Y003696D03*
X007030Y003710D03*
X007030Y003724D03*
X007030Y003738D03*
D130*
X005441Y003724D03*
X005455Y003379D03*
X007113Y005713D03*
D131*
X006546Y005976D03*
X006698Y004884D03*
X004902Y005810D03*
X004626Y003461D03*
D132*
X004667Y003489D03*
X006905Y003821D03*
X007859Y004843D03*
X007610Y005699D03*
X005358Y005672D03*
X005372Y006183D03*
D133*
X004923Y005741D03*
X004923Y005727D03*
X004605Y006183D03*
X004605Y006197D03*
X006705Y004898D03*
X006995Y003503D03*
D134*
X006926Y003517D03*
X007866Y004857D03*
X007617Y005686D03*
X007617Y006017D03*
X006581Y006211D03*
X005379Y006197D03*
X005227Y004871D03*
X005213Y004470D03*
X004660Y003848D03*
D135*
X005379Y004580D03*
X005379Y004594D03*
X005379Y004760D03*
X005379Y004774D03*
X006070Y004815D03*
X006070Y004829D03*
X006346Y004774D03*
X006346Y004760D03*
X006346Y004746D03*
X007037Y004732D03*
X007037Y004719D03*
X007037Y004705D03*
X007037Y004691D03*
X007037Y004677D03*
X007037Y004663D03*
X007037Y004650D03*
X007037Y004636D03*
X007037Y004622D03*
X007037Y004608D03*
X007037Y004594D03*
X007037Y004580D03*
X007037Y004567D03*
X007037Y004553D03*
X007037Y004539D03*
X007037Y004525D03*
X007037Y004511D03*
X007037Y004498D03*
X007037Y004484D03*
X007037Y004470D03*
X007037Y004456D03*
X007727Y004801D03*
X007866Y004912D03*
X008004Y004760D03*
X008004Y004746D03*
X008004Y004732D03*
X006622Y003682D03*
X006622Y003669D03*
X006622Y003655D03*
X006622Y003641D03*
X006346Y003544D03*
X006346Y003531D03*
X005517Y005782D03*
X005517Y005796D03*
X005517Y005810D03*
X005517Y005824D03*
X005517Y005838D03*
X005517Y005851D03*
X005517Y005865D03*
X005241Y006128D03*
X004688Y006114D03*
D136*
X005351Y005644D03*
X005407Y006238D03*
X006595Y006238D03*
X006581Y005948D03*
X005779Y004857D03*
X006733Y004442D03*
X006912Y003848D03*
X006912Y003600D03*
X006899Y003586D03*
X006899Y003558D03*
X007893Y004442D03*
X007962Y005865D03*
X007962Y005879D03*
X007962Y005907D03*
X005683Y003862D03*
X004647Y003862D03*
D137*
X004564Y003613D03*
X005600Y003613D03*
X006318Y003613D03*
X006608Y003613D03*
X007410Y004926D03*
D138*
X005849Y003613D03*
X004854Y003613D03*
X004591Y004926D03*
D139*
X005068Y003613D03*
D140*
X006974Y003613D03*
D141*
X006318Y003627D03*
X005862Y003627D03*
X005600Y003627D03*
X004564Y003627D03*
X007410Y004940D03*
X007410Y004981D03*
D142*
X006615Y003627D03*
X004861Y003627D03*
D143*
X006629Y003696D03*
X007030Y004857D03*
X007030Y004871D03*
X007030Y004884D03*
X007721Y004788D03*
X007997Y004774D03*
X007030Y005617D03*
X008149Y006086D03*
X005800Y006086D03*
X005800Y006072D03*
X005786Y006059D03*
X004971Y006059D03*
X004971Y006072D03*
X004971Y006086D03*
X004971Y006100D03*
X004971Y006114D03*
X004971Y006128D03*
X004971Y006142D03*
X004971Y006155D03*
X004971Y006169D03*
X004971Y006183D03*
X004971Y006197D03*
X004971Y006211D03*
X004971Y006224D03*
X004971Y006238D03*
X004971Y006045D03*
X004971Y006031D03*
X004971Y006017D03*
X004971Y006003D03*
X004971Y005990D03*
X004971Y005976D03*
X004971Y005962D03*
X004971Y005948D03*
X004971Y005934D03*
X004971Y005921D03*
X004971Y005907D03*
X004971Y005893D03*
X004971Y005879D03*
X004971Y005865D03*
X004971Y005851D03*
X004971Y005838D03*
X004971Y005824D03*
X004557Y005824D03*
X004557Y005838D03*
X004557Y005851D03*
X004557Y005865D03*
X004557Y005879D03*
X004557Y005893D03*
X004557Y005907D03*
X004557Y005921D03*
X004557Y005934D03*
X004557Y005948D03*
X004557Y005962D03*
X004557Y005976D03*
X004557Y005990D03*
X004557Y006003D03*
X004557Y006017D03*
X004557Y006031D03*
X004557Y006045D03*
X004557Y006059D03*
X004557Y006072D03*
X004557Y006086D03*
X004557Y006100D03*
X004557Y006114D03*
X004557Y005810D03*
X004557Y005796D03*
X004557Y005782D03*
X004557Y005769D03*
X004557Y005755D03*
X004557Y005741D03*
X004557Y005727D03*
X004557Y005713D03*
X004557Y005699D03*
X004557Y005686D03*
X004557Y005672D03*
X004557Y005658D03*
X004557Y005644D03*
D144*
X005503Y006169D03*
X007741Y005727D03*
X006760Y003765D03*
D145*
X006712Y004484D03*
X006546Y005672D03*
X004764Y005023D03*
X005289Y003821D03*
D146*
X005289Y003862D03*
X004764Y005064D03*
X004916Y005755D03*
X004916Y005769D03*
X004612Y006155D03*
X004612Y006169D03*
D147*
X005351Y005630D03*
X005393Y006003D03*
X005918Y006197D03*
X005918Y006211D03*
X007023Y005658D03*
X007866Y004898D03*
X007479Y004470D03*
X006912Y003862D03*
X005779Y004884D03*
D148*
X006539Y005630D03*
X004909Y005782D03*
X004909Y005796D03*
X004619Y006128D03*
X004619Y006142D03*
X004757Y004442D03*
D149*
X005586Y004442D03*
X005876Y004442D03*
X006843Y004525D03*
X007410Y005009D03*
X007258Y005630D03*
X007258Y006086D03*
X006954Y006197D03*
X006691Y006169D03*
X005959Y005630D03*
X007893Y005630D03*
X007893Y006294D03*
X008197Y004442D03*
D150*
X004757Y004456D03*
D151*
X006387Y005755D03*
X007755Y005741D03*
X008031Y004539D03*
X006871Y004539D03*
D152*
X007230Y004801D03*
X008391Y004801D03*
D153*
X006705Y004857D03*
D154*
X007030Y004898D03*
X007196Y004912D03*
X004971Y006252D03*
X004557Y005630D03*
D155*
X004916Y004926D03*
D156*
X004598Y004940D03*
D157*
X004916Y004940D03*
D158*
X004626Y004967D03*
D159*
X004888Y004967D03*
D160*
X007410Y004967D03*
D161*
X004743Y004981D03*
D162*
X005869Y005769D03*
D163*
X005869Y005782D03*
X005869Y005796D03*
X005869Y005810D03*
X005869Y005824D03*
X005869Y005838D03*
X005869Y005851D03*
D164*
X006974Y006017D03*
X006974Y006031D03*
X006974Y006045D03*
X006974Y006059D03*
X006974Y006072D03*
X006974Y006086D03*
M02*
