%
M48
M72
T01C0.0157
T02C0.0354
T03C0.0394
T04C0.0472
T05C0.0866
T06C0.1024
%
T01
X1370Y1863
X4126Y839
X7331Y3268
X8231Y4067
X8150Y4650
X7229Y5386
X6843Y5032
X6331Y5323
X5839Y5071
X5004Y5091
X4453Y4737
X5331Y6855
X5831Y6851
X6292Y8142
X7331Y6851
X7831Y6851
X8556Y5563
X10048Y7052
X10579Y6587
X11587Y5859
X11993Y7481
X11374Y9048
X9973Y10233
X8516Y8244
X1754Y9048
X1075Y7040
X8516Y1863
X11685Y1961
T02
X7319Y9465
X6138Y9465
X4630Y9870
X3843Y9870
X3056Y9870
X2268Y9870
X1481Y9870
X693Y9870
X8784Y9874
X10870Y9874
X11870Y9874
T03
X11776Y3867
X10776Y3867
X9776Y3867
X9776Y2867
X10776Y2867
X11776Y2867
X7237Y1823
X6252Y1823
X5268Y1823
X3004Y4087
X3004Y5071
X3004Y6056
T04
X3792Y7158
X3792Y2985
X8713Y2985
X8713Y7158
T05
X11272Y5071
X1233Y5071
T06
X2709Y1528
X9796Y1528
X9796Y8615
X2709Y8615
M30
