G75*
G70*
%OFA0B0*%
%FSLAX24Y24*%
%IPPOS*%
%LPD*%
%AMOC8*
5,1,8,0,0,1.08239X$1,22.5*
%
%ADD10C,0.0000*%
%ADD11OC8,0.0740*%
%ADD12C,0.0531*%
%ADD13C,0.0860*%
%ADD14C,0.0591*%
%ADD15R,0.0250X0.0500*%
%ADD16C,0.0277*%
%ADD17C,0.0160*%
%ADD18C,0.0100*%
D10*
X000150Y002119D02*
X002119Y000150D01*
X010386Y000150D01*
X012355Y002119D01*
X012355Y010622D01*
X008063Y010622D01*
X008063Y010032D01*
X005386Y010032D01*
X005386Y010622D01*
X000150Y010622D01*
X000150Y002119D01*
X002197Y001528D02*
X002199Y001573D01*
X002205Y001617D01*
X002214Y001661D01*
X002228Y001703D01*
X002245Y001744D01*
X002266Y001784D01*
X002290Y001822D01*
X002317Y001857D01*
X002347Y001890D01*
X002380Y001920D01*
X002415Y001947D01*
X002453Y001971D01*
X002493Y001992D01*
X002534Y002009D01*
X002576Y002023D01*
X002620Y002032D01*
X002664Y002038D01*
X002709Y002040D01*
X002754Y002038D01*
X002798Y002032D01*
X002842Y002023D01*
X002884Y002009D01*
X002925Y001992D01*
X002965Y001971D01*
X003003Y001947D01*
X003038Y001920D01*
X003071Y001890D01*
X003101Y001857D01*
X003128Y001822D01*
X003152Y001784D01*
X003173Y001744D01*
X003190Y001703D01*
X003204Y001661D01*
X003213Y001617D01*
X003219Y001573D01*
X003221Y001528D01*
X003219Y001483D01*
X003213Y001439D01*
X003204Y001395D01*
X003190Y001353D01*
X003173Y001312D01*
X003152Y001272D01*
X003128Y001234D01*
X003101Y001199D01*
X003071Y001166D01*
X003038Y001136D01*
X003003Y001109D01*
X002965Y001085D01*
X002925Y001064D01*
X002884Y001047D01*
X002842Y001033D01*
X002798Y001024D01*
X002754Y001018D01*
X002709Y001016D01*
X002664Y001018D01*
X002620Y001024D01*
X002576Y001033D01*
X002534Y001047D01*
X002493Y001064D01*
X002453Y001085D01*
X002415Y001109D01*
X002380Y001136D01*
X002347Y001166D01*
X002317Y001199D01*
X002290Y001234D01*
X002266Y001272D01*
X002245Y001312D01*
X002228Y001353D01*
X002214Y001395D01*
X002205Y001439D01*
X002199Y001483D01*
X002197Y001528D01*
X000800Y005071D02*
X000802Y005112D01*
X000808Y005153D01*
X000818Y005193D01*
X000831Y005232D01*
X000848Y005269D01*
X000869Y005305D01*
X000893Y005339D01*
X000920Y005370D01*
X000949Y005398D01*
X000982Y005424D01*
X001016Y005446D01*
X001053Y005465D01*
X001091Y005480D01*
X001131Y005492D01*
X001171Y005500D01*
X001212Y005504D01*
X001254Y005504D01*
X001295Y005500D01*
X001335Y005492D01*
X001375Y005480D01*
X001413Y005465D01*
X001449Y005446D01*
X001484Y005424D01*
X001517Y005398D01*
X001546Y005370D01*
X001573Y005339D01*
X001597Y005305D01*
X001618Y005269D01*
X001635Y005232D01*
X001648Y005193D01*
X001658Y005153D01*
X001664Y005112D01*
X001666Y005071D01*
X001664Y005030D01*
X001658Y004989D01*
X001648Y004949D01*
X001635Y004910D01*
X001618Y004873D01*
X001597Y004837D01*
X001573Y004803D01*
X001546Y004772D01*
X001517Y004744D01*
X001484Y004718D01*
X001450Y004696D01*
X001413Y004677D01*
X001375Y004662D01*
X001335Y004650D01*
X001295Y004642D01*
X001254Y004638D01*
X001212Y004638D01*
X001171Y004642D01*
X001131Y004650D01*
X001091Y004662D01*
X001053Y004677D01*
X001017Y004696D01*
X000982Y004718D01*
X000949Y004744D01*
X000920Y004772D01*
X000893Y004803D01*
X000869Y004837D01*
X000848Y004873D01*
X000831Y004910D01*
X000818Y004949D01*
X000808Y004989D01*
X000802Y005030D01*
X000800Y005071D01*
X002197Y008615D02*
X002199Y008660D01*
X002205Y008704D01*
X002214Y008748D01*
X002228Y008790D01*
X002245Y008831D01*
X002266Y008871D01*
X002290Y008909D01*
X002317Y008944D01*
X002347Y008977D01*
X002380Y009007D01*
X002415Y009034D01*
X002453Y009058D01*
X002493Y009079D01*
X002534Y009096D01*
X002576Y009110D01*
X002620Y009119D01*
X002664Y009125D01*
X002709Y009127D01*
X002754Y009125D01*
X002798Y009119D01*
X002842Y009110D01*
X002884Y009096D01*
X002925Y009079D01*
X002965Y009058D01*
X003003Y009034D01*
X003038Y009007D01*
X003071Y008977D01*
X003101Y008944D01*
X003128Y008909D01*
X003152Y008871D01*
X003173Y008831D01*
X003190Y008790D01*
X003204Y008748D01*
X003213Y008704D01*
X003219Y008660D01*
X003221Y008615D01*
X003219Y008570D01*
X003213Y008526D01*
X003204Y008482D01*
X003190Y008440D01*
X003173Y008399D01*
X003152Y008359D01*
X003128Y008321D01*
X003101Y008286D01*
X003071Y008253D01*
X003038Y008223D01*
X003003Y008196D01*
X002965Y008172D01*
X002925Y008151D01*
X002884Y008134D01*
X002842Y008120D01*
X002798Y008111D01*
X002754Y008105D01*
X002709Y008103D01*
X002664Y008105D01*
X002620Y008111D01*
X002576Y008120D01*
X002534Y008134D01*
X002493Y008151D01*
X002453Y008172D01*
X002415Y008196D01*
X002380Y008223D01*
X002347Y008253D01*
X002317Y008286D01*
X002290Y008321D01*
X002266Y008359D01*
X002245Y008399D01*
X002228Y008440D01*
X002214Y008482D01*
X002205Y008526D01*
X002199Y008570D01*
X002197Y008615D01*
X005961Y009465D02*
X005963Y009491D01*
X005969Y009517D01*
X005979Y009542D01*
X005992Y009565D01*
X006008Y009585D01*
X006028Y009603D01*
X006050Y009618D01*
X006073Y009630D01*
X006099Y009638D01*
X006125Y009642D01*
X006151Y009642D01*
X006177Y009638D01*
X006203Y009630D01*
X006227Y009618D01*
X006248Y009603D01*
X006268Y009585D01*
X006284Y009565D01*
X006297Y009542D01*
X006307Y009517D01*
X006313Y009491D01*
X006315Y009465D01*
X006313Y009439D01*
X006307Y009413D01*
X006297Y009388D01*
X006284Y009365D01*
X006268Y009345D01*
X006248Y009327D01*
X006226Y009312D01*
X006203Y009300D01*
X006177Y009292D01*
X006151Y009288D01*
X006125Y009288D01*
X006099Y009292D01*
X006073Y009300D01*
X006049Y009312D01*
X006028Y009327D01*
X006008Y009345D01*
X005992Y009365D01*
X005979Y009388D01*
X005969Y009413D01*
X005963Y009439D01*
X005961Y009465D01*
X007142Y009465D02*
X007144Y009491D01*
X007150Y009517D01*
X007160Y009542D01*
X007173Y009565D01*
X007189Y009585D01*
X007209Y009603D01*
X007231Y009618D01*
X007254Y009630D01*
X007280Y009638D01*
X007306Y009642D01*
X007332Y009642D01*
X007358Y009638D01*
X007384Y009630D01*
X007408Y009618D01*
X007429Y009603D01*
X007449Y009585D01*
X007465Y009565D01*
X007478Y009542D01*
X007488Y009517D01*
X007494Y009491D01*
X007496Y009465D01*
X007494Y009439D01*
X007488Y009413D01*
X007478Y009388D01*
X007465Y009365D01*
X007449Y009345D01*
X007429Y009327D01*
X007407Y009312D01*
X007384Y009300D01*
X007358Y009292D01*
X007332Y009288D01*
X007306Y009288D01*
X007280Y009292D01*
X007254Y009300D01*
X007230Y009312D01*
X007209Y009327D01*
X007189Y009345D01*
X007173Y009365D01*
X007160Y009388D01*
X007150Y009413D01*
X007144Y009439D01*
X007142Y009465D01*
X009284Y008615D02*
X009286Y008660D01*
X009292Y008704D01*
X009301Y008748D01*
X009315Y008790D01*
X009332Y008831D01*
X009353Y008871D01*
X009377Y008909D01*
X009404Y008944D01*
X009434Y008977D01*
X009467Y009007D01*
X009502Y009034D01*
X009540Y009058D01*
X009580Y009079D01*
X009621Y009096D01*
X009663Y009110D01*
X009707Y009119D01*
X009751Y009125D01*
X009796Y009127D01*
X009841Y009125D01*
X009885Y009119D01*
X009929Y009110D01*
X009971Y009096D01*
X010012Y009079D01*
X010052Y009058D01*
X010090Y009034D01*
X010125Y009007D01*
X010158Y008977D01*
X010188Y008944D01*
X010215Y008909D01*
X010239Y008871D01*
X010260Y008831D01*
X010277Y008790D01*
X010291Y008748D01*
X010300Y008704D01*
X010306Y008660D01*
X010308Y008615D01*
X010306Y008570D01*
X010300Y008526D01*
X010291Y008482D01*
X010277Y008440D01*
X010260Y008399D01*
X010239Y008359D01*
X010215Y008321D01*
X010188Y008286D01*
X010158Y008253D01*
X010125Y008223D01*
X010090Y008196D01*
X010052Y008172D01*
X010012Y008151D01*
X009971Y008134D01*
X009929Y008120D01*
X009885Y008111D01*
X009841Y008105D01*
X009796Y008103D01*
X009751Y008105D01*
X009707Y008111D01*
X009663Y008120D01*
X009621Y008134D01*
X009580Y008151D01*
X009540Y008172D01*
X009502Y008196D01*
X009467Y008223D01*
X009434Y008253D01*
X009404Y008286D01*
X009377Y008321D01*
X009353Y008359D01*
X009332Y008399D01*
X009315Y008440D01*
X009301Y008482D01*
X009292Y008526D01*
X009286Y008570D01*
X009284Y008615D01*
X010839Y005071D02*
X010841Y005112D01*
X010847Y005153D01*
X010857Y005193D01*
X010870Y005232D01*
X010887Y005269D01*
X010908Y005305D01*
X010932Y005339D01*
X010959Y005370D01*
X010988Y005398D01*
X011021Y005424D01*
X011055Y005446D01*
X011092Y005465D01*
X011130Y005480D01*
X011170Y005492D01*
X011210Y005500D01*
X011251Y005504D01*
X011293Y005504D01*
X011334Y005500D01*
X011374Y005492D01*
X011414Y005480D01*
X011452Y005465D01*
X011488Y005446D01*
X011523Y005424D01*
X011556Y005398D01*
X011585Y005370D01*
X011612Y005339D01*
X011636Y005305D01*
X011657Y005269D01*
X011674Y005232D01*
X011687Y005193D01*
X011697Y005153D01*
X011703Y005112D01*
X011705Y005071D01*
X011703Y005030D01*
X011697Y004989D01*
X011687Y004949D01*
X011674Y004910D01*
X011657Y004873D01*
X011636Y004837D01*
X011612Y004803D01*
X011585Y004772D01*
X011556Y004744D01*
X011523Y004718D01*
X011489Y004696D01*
X011452Y004677D01*
X011414Y004662D01*
X011374Y004650D01*
X011334Y004642D01*
X011293Y004638D01*
X011251Y004638D01*
X011210Y004642D01*
X011170Y004650D01*
X011130Y004662D01*
X011092Y004677D01*
X011056Y004696D01*
X011021Y004718D01*
X010988Y004744D01*
X010959Y004772D01*
X010932Y004803D01*
X010908Y004837D01*
X010887Y004873D01*
X010870Y004910D01*
X010857Y004949D01*
X010847Y004989D01*
X010841Y005030D01*
X010839Y005071D01*
X009284Y001528D02*
X009286Y001573D01*
X009292Y001617D01*
X009301Y001661D01*
X009315Y001703D01*
X009332Y001744D01*
X009353Y001784D01*
X009377Y001822D01*
X009404Y001857D01*
X009434Y001890D01*
X009467Y001920D01*
X009502Y001947D01*
X009540Y001971D01*
X009580Y001992D01*
X009621Y002009D01*
X009663Y002023D01*
X009707Y002032D01*
X009751Y002038D01*
X009796Y002040D01*
X009841Y002038D01*
X009885Y002032D01*
X009929Y002023D01*
X009971Y002009D01*
X010012Y001992D01*
X010052Y001971D01*
X010090Y001947D01*
X010125Y001920D01*
X010158Y001890D01*
X010188Y001857D01*
X010215Y001822D01*
X010239Y001784D01*
X010260Y001744D01*
X010277Y001703D01*
X010291Y001661D01*
X010300Y001617D01*
X010306Y001573D01*
X010308Y001528D01*
X010306Y001483D01*
X010300Y001439D01*
X010291Y001395D01*
X010277Y001353D01*
X010260Y001312D01*
X010239Y001272D01*
X010215Y001234D01*
X010188Y001199D01*
X010158Y001166D01*
X010125Y001136D01*
X010090Y001109D01*
X010052Y001085D01*
X010012Y001064D01*
X009971Y001047D01*
X009929Y001033D01*
X009885Y001024D01*
X009841Y001018D01*
X009796Y001016D01*
X009751Y001018D01*
X009707Y001024D01*
X009663Y001033D01*
X009621Y001047D01*
X009580Y001064D01*
X009540Y001085D01*
X009502Y001109D01*
X009467Y001136D01*
X009434Y001166D01*
X009404Y001199D01*
X009377Y001234D01*
X009353Y001272D01*
X009332Y001312D01*
X009315Y001353D01*
X009301Y001395D01*
X009292Y001439D01*
X009286Y001483D01*
X009284Y001528D01*
D11*
X009776Y002867D03*
X010776Y002867D03*
X011776Y002867D03*
X011776Y003867D03*
X010776Y003867D03*
X009776Y003867D03*
D12*
X008784Y009609D02*
X008784Y010140D01*
X010870Y010140D02*
X010870Y009609D01*
X011870Y009609D02*
X011870Y010140D01*
X004630Y010136D02*
X004630Y009605D01*
X003843Y009605D02*
X003843Y010136D01*
X003056Y010136D02*
X003056Y009605D01*
X002268Y009605D02*
X002268Y010136D01*
X001481Y010136D02*
X001481Y009605D01*
X000693Y009605D02*
X000693Y010136D01*
D13*
X003792Y007158D03*
X003792Y002985D03*
X008713Y002985D03*
X008713Y007158D03*
D14*
X003300Y006056D02*
X002709Y006056D01*
X002709Y005071D02*
X003300Y005071D01*
X003300Y004087D02*
X002709Y004087D01*
X005268Y002119D02*
X005268Y001528D01*
X006252Y001528D02*
X006252Y002119D01*
X007237Y002119D02*
X007237Y001528D01*
D15*
X008582Y008837D03*
X008937Y008837D03*
D16*
X008516Y008244D03*
X007831Y006851D03*
X007331Y006851D03*
X005831Y006851D03*
X005331Y006855D03*
X006292Y008142D03*
X008556Y005563D03*
X008150Y004650D03*
X008231Y004067D03*
X007331Y003268D03*
X008516Y001863D03*
X011685Y001961D03*
X011587Y005859D03*
X010579Y006587D03*
X010048Y007052D03*
X011993Y007481D03*
X011374Y009048D03*
X009973Y010233D03*
X007229Y005386D03*
X006843Y005032D03*
X006331Y005323D03*
X005839Y005071D03*
X005004Y005091D03*
X004453Y004737D03*
X001370Y001863D03*
X004126Y000839D03*
X001075Y007040D03*
X001754Y009048D03*
D17*
X002210Y009504D01*
X002268Y009643D02*
X002268Y009870D01*
X002268Y009643D02*
X002266Y009617D01*
X002261Y009592D01*
X002253Y009568D01*
X002242Y009544D01*
X002227Y009523D01*
X002210Y009504D01*
X003056Y009410D02*
X003399Y009066D01*
X003416Y009047D01*
X003431Y009026D01*
X003442Y009002D01*
X003450Y008978D01*
X003455Y008953D01*
X003457Y008927D01*
X003511Y008797D02*
X005073Y007235D01*
X005212Y007178D02*
X005482Y007178D01*
X005620Y007434D02*
X005646Y007432D01*
X005671Y007427D01*
X005695Y007419D01*
X005719Y007408D01*
X005740Y007393D01*
X005759Y007376D01*
X006226Y006908D01*
X006365Y006851D02*
X007331Y006851D01*
X007403Y007197D02*
X007429Y007195D01*
X007454Y007190D01*
X007478Y007182D01*
X007502Y007171D01*
X007523Y007156D01*
X007542Y007139D01*
X007542Y007140D02*
X007831Y006851D01*
X007403Y007197D02*
X006413Y007197D01*
X006273Y007255D02*
X005877Y007651D01*
X005738Y007709D02*
X005468Y007709D01*
X005350Y007433D02*
X005324Y007435D01*
X005299Y007440D01*
X005275Y007448D01*
X005251Y007459D01*
X005230Y007474D01*
X005211Y007491D01*
X005210Y007491D02*
X003901Y008801D01*
X003843Y008940D02*
X003843Y009870D01*
X003056Y009870D02*
X003056Y009410D01*
X003457Y008927D02*
X003459Y008903D01*
X003463Y008880D01*
X003471Y008857D01*
X003482Y008835D01*
X003495Y008816D01*
X003511Y008798D01*
X003843Y008940D02*
X003845Y008914D01*
X003850Y008889D01*
X003858Y008865D01*
X003869Y008841D01*
X003884Y008820D01*
X003901Y008801D01*
X004630Y008546D02*
X004630Y009870D01*
X004630Y008546D02*
X004632Y008520D01*
X004637Y008495D01*
X004645Y008471D01*
X004656Y008447D01*
X004671Y008426D01*
X004688Y008407D01*
X005329Y007767D01*
X005348Y007750D01*
X005369Y007735D01*
X005393Y007724D01*
X005417Y007716D01*
X005442Y007711D01*
X005468Y007709D01*
X005738Y007709D02*
X005764Y007707D01*
X005789Y007702D01*
X005813Y007694D01*
X005837Y007683D01*
X005858Y007668D01*
X005877Y007651D01*
X005620Y007433D02*
X005350Y007433D01*
X005212Y007177D02*
X005186Y007179D01*
X005161Y007184D01*
X005137Y007192D01*
X005113Y007203D01*
X005092Y007218D01*
X005073Y007235D01*
X005331Y006855D02*
X004944Y006467D01*
X004805Y006410D02*
X003735Y006410D01*
X003596Y006467D02*
X003515Y006549D01*
X003596Y006468D02*
X003615Y006451D01*
X003636Y006436D01*
X003660Y006425D01*
X003684Y006417D01*
X003709Y006412D01*
X003735Y006410D01*
X003515Y006549D02*
X003496Y006566D01*
X003475Y006581D01*
X003451Y006592D01*
X003427Y006600D01*
X003402Y006605D01*
X003376Y006607D01*
X000890Y006607D01*
X000864Y006609D01*
X000839Y006614D01*
X000815Y006622D01*
X000791Y006633D01*
X000770Y006648D01*
X000751Y006665D01*
X000734Y006684D01*
X000719Y006706D01*
X000708Y006729D01*
X000700Y006753D01*
X000695Y006778D01*
X000693Y006804D01*
X000693Y009870D01*
X004805Y006410D02*
X004831Y006412D01*
X004856Y006417D01*
X004880Y006425D01*
X004904Y006436D01*
X004925Y006451D01*
X004944Y006468D01*
X005482Y007178D02*
X005508Y007176D01*
X005533Y007171D01*
X005557Y007163D01*
X005581Y007152D01*
X005602Y007137D01*
X005621Y007120D01*
X005831Y006910D01*
X005831Y006851D01*
X006226Y006909D02*
X006245Y006892D01*
X006266Y006877D01*
X006290Y006866D01*
X006314Y006858D01*
X006339Y006853D01*
X006365Y006851D01*
X006413Y007197D02*
X006387Y007199D01*
X006362Y007204D01*
X006338Y007212D01*
X006314Y007223D01*
X006293Y007238D01*
X006274Y007255D01*
X007450Y005032D02*
X007476Y005034D01*
X007501Y005039D01*
X007525Y005047D01*
X007549Y005058D01*
X007570Y005073D01*
X007589Y005090D01*
X007590Y005090D02*
X010813Y008313D01*
X010870Y008452D02*
X010870Y009874D01*
X011870Y009874D02*
X011870Y008452D01*
X011813Y008313D02*
X008150Y004650D01*
X008498Y004067D02*
X008524Y004069D01*
X008549Y004074D01*
X008573Y004082D01*
X008597Y004093D01*
X008618Y004108D01*
X008637Y004125D01*
X011993Y007481D01*
X011813Y008313D02*
X011830Y008332D01*
X011845Y008353D01*
X011856Y008377D01*
X011864Y008401D01*
X011869Y008426D01*
X011871Y008452D01*
X010871Y008452D02*
X010869Y008426D01*
X010864Y008401D01*
X010856Y008377D01*
X010845Y008353D01*
X010830Y008332D01*
X010813Y008313D01*
X008779Y009875D02*
X008753Y009873D01*
X008728Y009868D01*
X008704Y009860D01*
X008681Y009849D01*
X008659Y009834D01*
X008640Y009817D01*
X008623Y009798D01*
X008608Y009777D01*
X008597Y009753D01*
X008589Y009729D01*
X008584Y009704D01*
X008582Y009678D01*
X008582Y008837D01*
X008779Y009874D02*
X008784Y009874D01*
X007450Y005032D02*
X006843Y005032D01*
X008231Y004067D02*
X008498Y004067D01*
X008422Y004067D02*
X008231Y004067D01*
X008419Y004067D01*
D18*
X002006Y001234D02*
X001389Y001234D01*
X001290Y001332D02*
X001966Y001332D01*
X001947Y001376D02*
X002063Y001096D01*
X002278Y000882D01*
X002558Y000766D01*
X002861Y000766D01*
X003141Y000882D01*
X003355Y001096D01*
X003471Y001376D01*
X003471Y001679D01*
X003355Y001959D01*
X003141Y002174D01*
X002861Y002290D01*
X002558Y002290D01*
X002278Y002174D01*
X002063Y001959D01*
X001947Y001679D01*
X001947Y001376D01*
X001947Y001431D02*
X001192Y001431D01*
X001093Y001529D02*
X001947Y001529D01*
X001947Y001628D02*
X000995Y001628D01*
X000896Y001726D02*
X001967Y001726D01*
X002007Y001825D02*
X000798Y001825D01*
X000699Y001923D02*
X002048Y001923D01*
X002125Y002022D02*
X000601Y002022D01*
X000502Y002120D02*
X002224Y002120D01*
X002385Y002219D02*
X000404Y002219D01*
X000400Y002222D02*
X000400Y009310D01*
X000458Y009252D01*
X000463Y009250D01*
X000463Y006689D01*
X000578Y006491D01*
X000776Y006377D01*
X002401Y006377D01*
X002332Y006308D01*
X002264Y006144D01*
X002264Y005967D01*
X002332Y005803D01*
X002457Y005678D01*
X002620Y005610D01*
X003388Y005610D01*
X003552Y005678D01*
X003677Y005803D01*
X003745Y005967D01*
X003745Y006144D01*
X003730Y006180D01*
X004900Y006180D01*
X004907Y006187D01*
X005029Y006237D01*
X005039Y006237D01*
X005046Y006245D01*
X005046Y006245D01*
X005107Y006305D01*
X005173Y006371D01*
X005368Y006566D01*
X005389Y006566D01*
X005495Y006610D01*
X005576Y006691D01*
X005580Y006702D01*
X005586Y006687D01*
X005668Y006606D01*
X005774Y006562D01*
X005889Y006562D01*
X005995Y006606D01*
X006076Y006687D01*
X006089Y006720D01*
X006124Y006686D01*
X006131Y006678D01*
X006141Y006678D01*
X006263Y006628D01*
X006270Y006621D01*
X007153Y006621D01*
X007168Y006606D01*
X007274Y006562D01*
X007389Y006562D01*
X007495Y006606D01*
X007576Y006687D01*
X007581Y006700D01*
X007586Y006687D01*
X007668Y006606D01*
X007774Y006562D01*
X007889Y006562D01*
X007995Y006606D01*
X008076Y006687D01*
X008120Y006793D01*
X008120Y006908D01*
X008076Y007014D01*
X007995Y007096D01*
X007889Y007140D01*
X007868Y007140D01*
X007767Y007240D01*
X007705Y007302D01*
X007645Y007362D01*
X007645Y007362D01*
X007638Y007370D01*
X007627Y007370D01*
X007506Y007420D01*
X007498Y007427D01*
X006426Y007427D01*
X006369Y007485D01*
X006102Y007752D01*
X006040Y007814D01*
X005980Y007874D01*
X005980Y007874D01*
X005972Y007881D01*
X005962Y007881D01*
X005840Y007932D01*
X005833Y007939D01*
X005481Y007939D01*
X005424Y007997D01*
X004917Y008504D01*
X004860Y008560D01*
X004860Y009250D01*
X004866Y009252D01*
X004983Y009369D01*
X005046Y009522D01*
X005046Y010219D01*
X004983Y010372D01*
X004982Y010372D01*
X005136Y010372D01*
X005136Y009982D01*
X005174Y009890D01*
X005245Y009820D01*
X005336Y009782D01*
X005851Y009782D01*
X005776Y009707D01*
X005711Y009550D01*
X005711Y009380D01*
X005776Y009223D01*
X005896Y009103D01*
X006053Y009038D01*
X006223Y009038D01*
X006380Y009103D01*
X006500Y009223D01*
X006565Y009380D01*
X006565Y009550D01*
X006500Y009707D01*
X006425Y009782D01*
X007032Y009782D01*
X006957Y009707D01*
X006892Y009550D01*
X006892Y009380D01*
X006957Y009223D01*
X007077Y009103D01*
X007234Y009038D01*
X007404Y009038D01*
X007561Y009103D01*
X007681Y009223D01*
X007746Y009380D01*
X007746Y009550D01*
X007681Y009707D01*
X007606Y009782D01*
X008113Y009782D01*
X008205Y009820D01*
X008275Y009890D01*
X008313Y009982D01*
X008313Y010372D01*
X008430Y010372D01*
X008368Y010223D01*
X008368Y009819D01*
X008352Y009792D01*
X008352Y009194D01*
X008307Y009149D01*
X008307Y008524D01*
X008395Y008437D01*
X008769Y008437D01*
X008774Y008441D01*
X008792Y008437D01*
X008924Y008437D01*
X008924Y008824D01*
X008949Y008824D01*
X008949Y008437D01*
X009045Y008437D01*
X009150Y008183D01*
X009364Y007969D01*
X009644Y007853D01*
X009947Y007853D01*
X010084Y007910D01*
X009293Y007118D01*
X009293Y007273D01*
X009205Y007486D01*
X009042Y007650D01*
X008828Y007738D01*
X008598Y007738D01*
X008384Y007650D01*
X008221Y007486D01*
X008133Y007273D01*
X008133Y007043D01*
X008221Y006829D01*
X008384Y006666D01*
X008598Y006578D01*
X008753Y006578D01*
X007494Y005320D01*
X007437Y005262D01*
X007021Y005262D01*
X007006Y005277D01*
X006900Y005321D01*
X006785Y005321D01*
X006679Y005277D01*
X006598Y005195D01*
X006554Y005089D01*
X006554Y004974D01*
X006598Y004868D01*
X006679Y004787D01*
X006785Y004743D01*
X006900Y004743D01*
X007006Y004787D01*
X007021Y004802D01*
X007546Y004802D01*
X007553Y004809D01*
X007674Y004860D01*
X007685Y004860D01*
X007692Y004867D01*
X007692Y004867D01*
X007692Y004867D01*
X007752Y004927D01*
X007820Y004994D01*
X010908Y008083D01*
X010908Y008083D01*
X010975Y008150D01*
X010975Y008150D01*
X011035Y008210D01*
X011035Y008210D01*
X011035Y008210D01*
X011043Y008218D01*
X011043Y008228D01*
X011093Y008349D01*
X011100Y008357D01*
X011100Y009254D01*
X011106Y009256D01*
X011223Y009373D01*
X011286Y009526D01*
X011286Y010223D01*
X011224Y010372D01*
X011517Y010372D01*
X011455Y010223D01*
X011455Y009526D01*
X011518Y009373D01*
X011635Y009256D01*
X011640Y009254D01*
X011640Y008466D01*
X011583Y008408D01*
X008113Y004939D01*
X008093Y004939D01*
X007986Y004895D01*
X007905Y004814D01*
X007861Y004707D01*
X007861Y004593D01*
X007905Y004486D01*
X007986Y004405D01*
X008093Y004361D01*
X008207Y004361D01*
X008314Y004405D01*
X008395Y004486D01*
X008439Y004593D01*
X008439Y004613D01*
X011908Y008083D01*
X011975Y008150D01*
X011975Y008150D01*
X012035Y008210D01*
X012035Y008210D01*
X012043Y008218D01*
X012043Y008228D01*
X012093Y008349D01*
X012100Y008357D01*
X012100Y009254D01*
X012105Y009256D01*
X012105Y007747D01*
X012050Y007769D01*
X011935Y007769D01*
X011829Y007725D01*
X011748Y007644D01*
X011704Y007538D01*
X011704Y007517D01*
X008511Y004324D01*
X008484Y004297D01*
X008410Y004297D01*
X008395Y004312D01*
X008289Y004356D01*
X008174Y004356D01*
X008068Y004312D01*
X007987Y004231D01*
X007943Y004125D01*
X007943Y004010D01*
X007987Y003904D01*
X008068Y003823D01*
X008174Y003779D01*
X008289Y003779D01*
X008395Y003823D01*
X008410Y003837D01*
X008593Y003837D01*
X008600Y003845D01*
X008722Y003895D01*
X008732Y003895D01*
X008739Y003902D01*
X008799Y003962D01*
X008799Y003962D01*
X008836Y003999D01*
X012029Y007192D01*
X012050Y007192D01*
X012105Y007215D01*
X012105Y004273D01*
X011991Y004387D01*
X011561Y004387D01*
X011276Y004102D01*
X010991Y004387D01*
X010561Y004387D01*
X010276Y004102D01*
X009991Y004387D01*
X009824Y004387D01*
X009824Y003915D01*
X009728Y003915D01*
X009728Y004387D01*
X009561Y004387D01*
X009256Y004082D01*
X009256Y003915D01*
X009728Y003915D01*
X009728Y003818D01*
X009256Y003818D01*
X009256Y003669D01*
X009211Y003715D01*
X009208Y003718D01*
X009204Y003718D01*
X009071Y003772D01*
X009069Y003775D01*
X006945Y003775D01*
X006589Y004132D01*
X006533Y004188D01*
X006531Y004190D01*
X006531Y005115D01*
X006576Y005160D01*
X006620Y005266D01*
X006620Y005381D01*
X006576Y005487D01*
X006495Y005568D01*
X006389Y005612D01*
X006274Y005612D01*
X006168Y005568D01*
X006086Y005487D01*
X006042Y005381D01*
X006042Y005266D01*
X006086Y005160D01*
X006131Y005115D01*
X006131Y004105D01*
X006134Y004103D01*
X006189Y003970D01*
X006189Y003966D01*
X006192Y003963D01*
X006251Y003904D01*
X006306Y003849D01*
X006722Y003433D01*
X006726Y003433D01*
X006859Y003378D01*
X006861Y003375D01*
X007063Y003375D01*
X007042Y003326D01*
X007042Y003211D01*
X007086Y003105D01*
X004370Y003105D01*
X004372Y003100D02*
X004283Y003313D01*
X004120Y003476D01*
X003907Y003565D01*
X003676Y003565D01*
X003463Y003476D01*
X003300Y003313D01*
X003212Y003100D01*
X003212Y002869D01*
X003300Y002656D01*
X003463Y002493D01*
X003676Y002405D01*
X003907Y002405D01*
X004120Y002493D01*
X004283Y002656D01*
X004372Y002869D01*
X004372Y003100D01*
X004372Y003007D02*
X007208Y003007D01*
X007168Y003023D02*
X007274Y002979D01*
X007337Y002979D01*
X007432Y002885D01*
X007489Y002827D01*
X007489Y002495D01*
X007489Y002496D01*
X007325Y002564D01*
X007148Y002564D01*
X006984Y002496D01*
X006859Y002371D01*
X006791Y002207D01*
X006791Y001439D01*
X006859Y001276D01*
X006984Y001150D01*
X007037Y001129D01*
X007037Y000487D01*
X007087Y000400D01*
X002222Y000400D01*
X000400Y002222D01*
X000400Y002317D02*
X004870Y002317D01*
X004855Y002289D02*
X004834Y002223D01*
X004823Y002154D01*
X004823Y001872D01*
X005220Y001872D01*
X005220Y002562D01*
X005164Y002553D01*
X005097Y002531D01*
X005035Y002499D01*
X004978Y002458D01*
X004928Y002409D01*
X004887Y002352D01*
X004855Y002289D01*
X004833Y002219D02*
X003033Y002219D01*
X003194Y002120D02*
X004823Y002120D01*
X004823Y002022D02*
X003293Y002022D01*
X003370Y001923D02*
X004823Y001923D01*
X004823Y001775D02*
X004823Y001493D01*
X004834Y001424D01*
X004855Y001357D01*
X004887Y001295D01*
X004928Y001238D01*
X004978Y001188D01*
X005035Y001147D01*
X005097Y001115D01*
X005164Y001094D01*
X005220Y001085D01*
X005220Y001775D01*
X005317Y001775D01*
X005317Y001872D01*
X005713Y001872D01*
X005713Y002154D01*
X005702Y002223D01*
X005681Y002289D01*
X005649Y002352D01*
X005608Y002409D01*
X005558Y002458D01*
X005501Y002499D01*
X005439Y002531D01*
X005372Y002553D01*
X005317Y002562D01*
X005317Y001872D01*
X005220Y001872D01*
X005220Y001775D01*
X004823Y001775D01*
X004823Y001726D02*
X003452Y001726D01*
X003471Y001628D02*
X004823Y001628D01*
X004823Y001529D02*
X003471Y001529D01*
X003471Y001431D02*
X004833Y001431D01*
X004868Y001332D02*
X003452Y001332D01*
X003412Y001234D02*
X004933Y001234D01*
X005059Y001135D02*
X003371Y001135D01*
X003295Y001037D02*
X007037Y001037D01*
X007037Y000938D02*
X003196Y000938D01*
X003038Y000840D02*
X007037Y000840D01*
X007037Y000741D02*
X001881Y000741D01*
X001783Y000840D02*
X002380Y000840D01*
X002222Y000938D02*
X001684Y000938D01*
X001586Y001037D02*
X002123Y001037D01*
X002047Y001135D02*
X001487Y001135D01*
X001980Y000643D02*
X007037Y000643D01*
X007037Y000544D02*
X002078Y000544D01*
X002177Y000446D02*
X007061Y000446D01*
X007237Y000583D02*
X007237Y001823D01*
X006791Y001825D02*
X006698Y001825D01*
X006698Y001923D02*
X006791Y001923D01*
X006791Y002022D02*
X006698Y002022D01*
X006698Y002120D02*
X006791Y002120D01*
X006796Y002219D02*
X006693Y002219D01*
X006698Y002207D02*
X006630Y002371D01*
X006505Y002496D01*
X006341Y002564D01*
X006164Y002564D01*
X006000Y002496D01*
X005875Y002371D01*
X005807Y002207D01*
X005807Y001439D01*
X005875Y001276D01*
X006000Y001150D01*
X006164Y001083D01*
X006341Y001083D01*
X006505Y001150D01*
X006630Y001276D01*
X006698Y001439D01*
X006698Y002207D01*
X006652Y002317D02*
X006837Y002317D01*
X006904Y002416D02*
X006585Y002416D01*
X006461Y002514D02*
X007028Y002514D01*
X007445Y002514D02*
X007489Y002514D01*
X007489Y002613D02*
X004240Y002613D01*
X004306Y002711D02*
X007489Y002711D01*
X007489Y002810D02*
X004347Y002810D01*
X004372Y002908D02*
X007408Y002908D01*
X007632Y002967D02*
X007649Y002948D01*
X007664Y002927D01*
X007675Y002903D01*
X007683Y002879D01*
X007688Y002854D01*
X007690Y002828D01*
X007689Y002828D02*
X007689Y000937D01*
X007691Y000911D01*
X007696Y000886D01*
X007704Y000862D01*
X007715Y000839D01*
X007730Y000817D01*
X007747Y000798D01*
X007766Y000781D01*
X007788Y000766D01*
X007811Y000755D01*
X007835Y000747D01*
X007860Y000742D01*
X007886Y000740D01*
X007886Y000741D02*
X010068Y000741D01*
X010208Y000798D02*
X010718Y001309D01*
X010776Y001448D02*
X010776Y002867D01*
X010393Y002514D02*
X010159Y002514D01*
X010257Y002613D02*
X010295Y002613D01*
X010276Y002631D02*
X010561Y002347D01*
X010576Y002347D01*
X010576Y001449D01*
X010557Y001431D01*
X010557Y001679D01*
X010442Y001959D01*
X010227Y002174D01*
X009947Y002290D01*
X009644Y002290D01*
X009364Y002174D01*
X009150Y001959D01*
X009034Y001679D01*
X009034Y001376D01*
X009150Y001096D01*
X009306Y000941D01*
X007889Y000941D01*
X007889Y002911D01*
X007887Y002914D01*
X007832Y003046D01*
X007832Y003050D01*
X007829Y003053D01*
X007773Y003109D01*
X007715Y003167D01*
X007620Y003262D01*
X007620Y003326D01*
X007599Y003375D01*
X008283Y003375D01*
X008221Y003313D01*
X008133Y003100D01*
X008133Y002869D01*
X008221Y002656D01*
X008384Y002493D01*
X008598Y002405D01*
X008828Y002405D01*
X009042Y002493D01*
X009205Y002656D01*
X009256Y002780D01*
X009256Y002651D01*
X009561Y002347D01*
X009991Y002347D01*
X010276Y002631D01*
X010060Y002416D02*
X010492Y002416D01*
X010576Y002317D02*
X007889Y002317D01*
X007889Y002219D02*
X009472Y002219D01*
X009310Y002120D02*
X007889Y002120D01*
X007889Y002022D02*
X009212Y002022D01*
X009135Y001923D02*
X007889Y001923D01*
X007889Y001825D02*
X009094Y001825D01*
X009053Y001726D02*
X007889Y001726D01*
X007889Y001628D02*
X009034Y001628D01*
X009034Y001529D02*
X007889Y001529D01*
X007889Y001431D02*
X009034Y001431D01*
X009052Y001332D02*
X007889Y001332D01*
X007889Y001234D02*
X009093Y001234D01*
X009134Y001135D02*
X007889Y001135D01*
X007889Y001037D02*
X009210Y001037D01*
X010068Y000740D02*
X010094Y000742D01*
X010119Y000747D01*
X010143Y000755D01*
X010167Y000766D01*
X010188Y000781D01*
X010207Y000798D01*
X010365Y000483D02*
X010346Y000466D01*
X010325Y000451D01*
X010301Y000440D01*
X010277Y000432D01*
X010252Y000427D01*
X010226Y000425D01*
X010226Y000426D02*
X007394Y000426D01*
X007372Y000428D01*
X007350Y000432D01*
X007329Y000440D01*
X007309Y000451D01*
X007291Y000464D01*
X007275Y000480D01*
X007262Y000498D01*
X007251Y000518D01*
X007243Y000539D01*
X007239Y000561D01*
X007237Y000583D01*
X007022Y001135D02*
X006467Y001135D01*
X006588Y001234D02*
X006901Y001234D01*
X006836Y001332D02*
X006653Y001332D01*
X006694Y001431D02*
X006795Y001431D01*
X006791Y001529D02*
X006698Y001529D01*
X006698Y001628D02*
X006791Y001628D01*
X006791Y001726D02*
X006698Y001726D01*
X006037Y001135D02*
X005478Y001135D01*
X005501Y001147D02*
X005558Y001188D01*
X005608Y001238D01*
X005649Y001295D01*
X005681Y001357D01*
X005702Y001424D01*
X005713Y001493D01*
X005713Y001775D01*
X005317Y001775D01*
X005317Y001085D01*
X005372Y001094D01*
X005439Y001115D01*
X005501Y001147D01*
X005603Y001234D02*
X005917Y001234D01*
X005852Y001332D02*
X005668Y001332D01*
X005704Y001431D02*
X005811Y001431D01*
X005807Y001529D02*
X005713Y001529D01*
X005713Y001628D02*
X005807Y001628D01*
X005807Y001726D02*
X005713Y001726D01*
X005807Y001825D02*
X005317Y001825D01*
X005220Y001825D02*
X003411Y001825D01*
X003650Y002416D02*
X000400Y002416D01*
X000400Y002514D02*
X003442Y002514D01*
X003344Y002613D02*
X000400Y002613D01*
X000400Y002711D02*
X003277Y002711D01*
X003236Y002810D02*
X000400Y002810D01*
X000400Y002908D02*
X003212Y002908D01*
X003212Y003007D02*
X000400Y003007D01*
X000400Y003105D02*
X003214Y003105D01*
X003255Y003204D02*
X000400Y003204D01*
X000400Y003302D02*
X003295Y003302D01*
X003387Y003401D02*
X000400Y003401D01*
X000400Y003499D02*
X003518Y003499D01*
X003471Y003674D02*
X003533Y003706D01*
X003590Y003747D01*
X003639Y003797D01*
X003680Y003854D01*
X003712Y003916D01*
X003734Y003983D01*
X003743Y004039D01*
X003053Y004039D01*
X003053Y004135D01*
X003743Y004135D01*
X003734Y004191D01*
X003712Y004258D01*
X003680Y004320D01*
X003639Y004377D01*
X003590Y004427D01*
X003533Y004468D01*
X003471Y004500D01*
X003404Y004521D01*
X003335Y004532D01*
X003053Y004532D01*
X003053Y004135D01*
X002956Y004135D01*
X002956Y004039D01*
X002266Y004039D01*
X002275Y003983D01*
X002296Y003916D01*
X002328Y003854D01*
X002369Y003797D01*
X002419Y003747D01*
X002476Y003706D01*
X002538Y003674D01*
X002605Y003653D01*
X002674Y003642D01*
X002956Y003642D01*
X002956Y004039D01*
X003053Y004039D01*
X003053Y003642D01*
X003335Y003642D01*
X003404Y003653D01*
X003471Y003674D01*
X003513Y003696D02*
X006459Y003696D01*
X006557Y003598D02*
X000400Y003598D01*
X000400Y003696D02*
X002496Y003696D01*
X002372Y003795D02*
X000400Y003795D01*
X000400Y003893D02*
X002308Y003893D01*
X002273Y003992D02*
X000400Y003992D01*
X000400Y004090D02*
X002956Y004090D01*
X002956Y004135D02*
X002266Y004135D01*
X002275Y004191D01*
X002296Y004258D01*
X002328Y004320D01*
X002369Y004377D01*
X002419Y004427D01*
X002476Y004468D01*
X002538Y004500D01*
X002605Y004521D01*
X002674Y004532D01*
X002956Y004532D01*
X002956Y004135D01*
X002956Y004189D02*
X003053Y004189D01*
X003053Y004287D02*
X002956Y004287D01*
X002956Y004386D02*
X003053Y004386D01*
X003053Y004484D02*
X002956Y004484D01*
X002620Y004626D02*
X003388Y004626D01*
X003552Y004694D01*
X003677Y004819D01*
X003745Y004983D01*
X003745Y005160D01*
X003677Y005323D01*
X003552Y005449D01*
X003388Y005517D01*
X002620Y005517D01*
X002457Y005449D01*
X002332Y005323D01*
X002264Y005160D01*
X002264Y004983D01*
X002332Y004819D01*
X002457Y004694D01*
X002620Y004626D01*
X002488Y004681D02*
X001808Y004681D01*
X001812Y004684D02*
X001916Y004935D01*
X001916Y005207D01*
X001812Y005458D01*
X001620Y005650D01*
X001369Y005754D01*
X001097Y005754D01*
X000846Y005650D01*
X000654Y005458D01*
X000550Y005207D01*
X000550Y004935D01*
X000654Y004684D01*
X000846Y004492D01*
X001097Y004388D01*
X001369Y004388D01*
X001620Y004492D01*
X001812Y004684D01*
X001851Y004780D02*
X002371Y004780D01*
X002307Y004878D02*
X001892Y004878D01*
X001916Y004977D02*
X002266Y004977D01*
X002264Y005075D02*
X001916Y005075D01*
X001916Y005174D02*
X002269Y005174D01*
X002310Y005272D02*
X001889Y005272D01*
X001848Y005371D02*
X002379Y005371D01*
X002506Y005469D02*
X001801Y005469D01*
X001702Y005568D02*
X006167Y005568D01*
X006079Y005469D02*
X003503Y005469D01*
X003630Y005371D02*
X006042Y005371D01*
X006042Y005272D02*
X003698Y005272D01*
X003739Y005174D02*
X006081Y005174D01*
X006131Y005075D02*
X003745Y005075D01*
X003742Y004977D02*
X006131Y004977D01*
X006131Y004878D02*
X003702Y004878D01*
X003638Y004780D02*
X006131Y004780D01*
X006131Y004681D02*
X003521Y004681D01*
X003501Y004484D02*
X006131Y004484D01*
X006131Y004386D02*
X003631Y004386D01*
X003697Y004287D02*
X006131Y004287D01*
X006131Y004189D02*
X003734Y004189D01*
X003735Y003992D02*
X006180Y003992D01*
X006139Y004090D02*
X003053Y004090D01*
X003053Y003992D02*
X002956Y003992D01*
X002956Y003893D02*
X003053Y003893D01*
X003053Y003795D02*
X002956Y003795D01*
X002956Y003696D02*
X003053Y003696D01*
X003637Y003795D02*
X006360Y003795D01*
X006262Y003893D02*
X003701Y003893D01*
X004066Y003499D02*
X006656Y003499D01*
X006804Y003401D02*
X004196Y003401D01*
X004288Y003302D02*
X007042Y003302D01*
X007045Y003204D02*
X004329Y003204D01*
X004141Y002514D02*
X005064Y002514D01*
X005220Y002514D02*
X005317Y002514D01*
X005317Y002416D02*
X005220Y002416D01*
X005220Y002317D02*
X005317Y002317D01*
X005317Y002219D02*
X005220Y002219D01*
X005220Y002120D02*
X005317Y002120D01*
X005317Y002022D02*
X005220Y002022D01*
X005220Y001923D02*
X005317Y001923D01*
X005317Y001726D02*
X005220Y001726D01*
X005220Y001628D02*
X005317Y001628D01*
X005317Y001529D02*
X005220Y001529D01*
X005220Y001431D02*
X005317Y001431D01*
X005317Y001332D02*
X005220Y001332D01*
X005220Y001234D02*
X005317Y001234D01*
X005317Y001135D02*
X005220Y001135D01*
X005713Y001923D02*
X005807Y001923D01*
X005807Y002022D02*
X005713Y002022D01*
X005713Y002120D02*
X005807Y002120D01*
X005812Y002219D02*
X005703Y002219D01*
X005667Y002317D02*
X005853Y002317D01*
X005920Y002416D02*
X005601Y002416D01*
X005473Y002514D02*
X006044Y002514D01*
X007086Y003105D02*
X007168Y003023D01*
X007331Y003268D02*
X007632Y002967D01*
X007777Y003105D02*
X008135Y003105D01*
X008133Y003007D02*
X007848Y003007D01*
X007889Y002908D02*
X008133Y002908D01*
X008158Y002810D02*
X007889Y002810D01*
X007889Y002711D02*
X008199Y002711D01*
X008265Y002613D02*
X007889Y002613D01*
X007889Y002514D02*
X008363Y002514D01*
X008571Y002416D02*
X007889Y002416D01*
X007679Y003204D02*
X008176Y003204D01*
X008217Y003302D02*
X007620Y003302D01*
X007997Y003893D02*
X006828Y003893D01*
X006926Y003795D02*
X008135Y003795D01*
X008327Y003795D02*
X009256Y003795D01*
X009256Y003696D02*
X009229Y003696D01*
X009125Y003518D02*
X009776Y002867D01*
X009393Y002514D02*
X009063Y002514D01*
X009161Y002613D02*
X009295Y002613D01*
X009256Y002711D02*
X009227Y002711D01*
X009492Y002416D02*
X008855Y002416D01*
X009125Y003517D02*
X009106Y003534D01*
X009085Y003549D01*
X009061Y003560D01*
X009037Y003568D01*
X009012Y003573D01*
X008986Y003575D01*
X006944Y003575D01*
X006805Y003633D02*
X006389Y004049D01*
X006331Y004188D02*
X006331Y005323D01*
X006583Y005469D02*
X007644Y005469D01*
X007742Y005568D02*
X006495Y005568D01*
X006620Y005371D02*
X007545Y005371D01*
X007494Y005320D02*
X007494Y005320D01*
X007447Y005272D02*
X007011Y005272D01*
X006675Y005272D02*
X006620Y005272D01*
X006589Y005174D02*
X006582Y005174D01*
X006554Y005075D02*
X006531Y005075D01*
X006531Y004977D02*
X006554Y004977D01*
X006531Y004878D02*
X006594Y004878D01*
X006531Y004780D02*
X006698Y004780D01*
X006531Y004681D02*
X007861Y004681D01*
X007865Y004583D02*
X006531Y004583D01*
X006531Y004484D02*
X007908Y004484D01*
X008034Y004386D02*
X006531Y004386D01*
X006531Y004287D02*
X008043Y004287D01*
X007969Y004189D02*
X006532Y004189D01*
X006389Y004049D02*
X006372Y004068D01*
X006357Y004089D01*
X006346Y004113D01*
X006338Y004137D01*
X006333Y004162D01*
X006331Y004188D01*
X006631Y004090D02*
X007943Y004090D01*
X007950Y003992D02*
X006729Y003992D01*
X006805Y003633D02*
X006824Y003616D01*
X006845Y003601D01*
X006869Y003590D01*
X006893Y003582D01*
X006918Y003577D01*
X006944Y003575D01*
X006131Y004583D02*
X001710Y004583D01*
X001600Y004484D02*
X002507Y004484D01*
X002378Y004386D02*
X000400Y004386D01*
X000400Y004484D02*
X000865Y004484D01*
X000755Y004583D02*
X000400Y004583D01*
X000400Y004681D02*
X000657Y004681D01*
X000614Y004780D02*
X000400Y004780D01*
X000400Y004878D02*
X000573Y004878D01*
X000550Y004977D02*
X000400Y004977D01*
X000400Y005075D02*
X000550Y005075D01*
X000550Y005174D02*
X000400Y005174D01*
X000400Y005272D02*
X000576Y005272D01*
X000617Y005371D02*
X000400Y005371D01*
X000400Y005469D02*
X000664Y005469D01*
X000763Y005568D02*
X000400Y005568D01*
X000400Y005666D02*
X000884Y005666D01*
X000400Y005765D02*
X002370Y005765D01*
X002307Y005863D02*
X000400Y005863D01*
X000400Y005962D02*
X002266Y005962D01*
X002264Y006060D02*
X000400Y006060D01*
X000400Y006159D02*
X002270Y006159D01*
X002311Y006257D02*
X000400Y006257D01*
X000400Y006356D02*
X002379Y006356D01*
X002486Y005666D02*
X001582Y005666D01*
X000642Y006454D02*
X000400Y006454D01*
X000400Y006553D02*
X000542Y006553D01*
X000578Y006491D02*
X000578Y006491D01*
X000578Y006491D01*
X000485Y006651D02*
X000400Y006651D01*
X000400Y006750D02*
X000463Y006750D01*
X000463Y006848D02*
X000400Y006848D01*
X000400Y006947D02*
X000463Y006947D01*
X000463Y007045D02*
X000400Y007045D01*
X000400Y007144D02*
X000463Y007144D01*
X000463Y007242D02*
X000400Y007242D01*
X000400Y007341D02*
X000463Y007341D01*
X000463Y007439D02*
X000400Y007439D01*
X000400Y007538D02*
X000463Y007538D01*
X000463Y007636D02*
X000400Y007636D01*
X000400Y007735D02*
X000463Y007735D01*
X000463Y007833D02*
X000400Y007833D01*
X000400Y007932D02*
X000463Y007932D01*
X000463Y008030D02*
X000400Y008030D01*
X000400Y008129D02*
X000463Y008129D01*
X000463Y008227D02*
X000400Y008227D01*
X000400Y008326D02*
X000463Y008326D01*
X000463Y008424D02*
X000400Y008424D01*
X000400Y008523D02*
X000463Y008523D01*
X000463Y008621D02*
X000400Y008621D01*
X000400Y008720D02*
X000463Y008720D01*
X000463Y008818D02*
X000400Y008818D01*
X000400Y008917D02*
X000463Y008917D01*
X000463Y009015D02*
X000400Y009015D01*
X000400Y009114D02*
X000463Y009114D01*
X000463Y009212D02*
X000400Y009212D01*
X000923Y009212D02*
X001342Y009212D01*
X001398Y009189D02*
X001245Y009252D01*
X001128Y009369D01*
X001087Y009469D01*
X001046Y009369D01*
X000929Y009252D01*
X000923Y009250D01*
X000923Y006837D01*
X003297Y006837D01*
X003212Y007043D01*
X003212Y007273D01*
X003300Y007486D01*
X003463Y007650D01*
X003676Y007738D01*
X003907Y007738D01*
X004120Y007650D01*
X004283Y007486D01*
X004372Y007273D01*
X004372Y007043D01*
X004283Y006829D01*
X004120Y006666D01*
X004057Y006640D01*
X004791Y006640D01*
X004848Y006696D01*
X005042Y006891D01*
X005042Y006912D01*
X005067Y006972D01*
X004988Y007005D01*
X004977Y007005D01*
X004970Y007013D01*
X004970Y007013D01*
X004910Y007073D01*
X004843Y007140D01*
X004843Y007140D01*
X003471Y008512D01*
X003471Y008463D01*
X003355Y008183D01*
X003141Y007969D01*
X002861Y007853D01*
X002558Y007853D01*
X002278Y007969D01*
X002063Y008183D01*
X001947Y008463D01*
X001947Y008766D01*
X002063Y009046D01*
X002192Y009175D01*
X002025Y009243D01*
X001862Y009407D01*
X001855Y009422D01*
X001833Y009369D01*
X001716Y009252D01*
X001563Y009189D01*
X001398Y009189D01*
X001619Y009212D02*
X002101Y009212D01*
X002131Y009114D02*
X000923Y009114D01*
X000923Y009015D02*
X002050Y009015D01*
X002010Y008917D02*
X000923Y008917D01*
X000923Y008818D02*
X001969Y008818D01*
X001947Y008720D02*
X000923Y008720D01*
X000923Y008621D02*
X001947Y008621D01*
X001947Y008523D02*
X000923Y008523D01*
X000923Y008424D02*
X001963Y008424D01*
X002004Y008326D02*
X000923Y008326D01*
X000923Y008227D02*
X002045Y008227D01*
X002118Y008129D02*
X000923Y008129D01*
X000923Y008030D02*
X002216Y008030D01*
X002367Y007932D02*
X000923Y007932D01*
X000923Y007833D02*
X004150Y007833D01*
X004248Y007735D02*
X003915Y007735D01*
X004051Y007932D02*
X003051Y007932D01*
X003202Y008030D02*
X003953Y008030D01*
X003854Y008129D02*
X003300Y008129D01*
X003373Y008227D02*
X003756Y008227D01*
X003657Y008326D02*
X003414Y008326D01*
X003455Y008424D02*
X003559Y008424D01*
X003668Y007735D02*
X000923Y007735D01*
X000923Y007636D02*
X003450Y007636D01*
X003351Y007538D02*
X000923Y007538D01*
X000923Y007439D02*
X003280Y007439D01*
X003240Y007341D02*
X000923Y007341D01*
X000923Y007242D02*
X003212Y007242D01*
X003212Y007144D02*
X000923Y007144D01*
X000923Y007045D02*
X003212Y007045D01*
X003251Y006947D02*
X000923Y006947D01*
X000923Y006848D02*
X003292Y006848D01*
X004084Y006651D02*
X004802Y006651D01*
X004901Y006750D02*
X004204Y006750D01*
X004291Y006848D02*
X004999Y006848D01*
X005057Y006947D02*
X004332Y006947D01*
X004372Y007045D02*
X004938Y007045D01*
X004839Y007144D02*
X004372Y007144D01*
X004372Y007242D02*
X004741Y007242D01*
X004642Y007341D02*
X004344Y007341D01*
X004303Y007439D02*
X004544Y007439D01*
X004445Y007538D02*
X004232Y007538D01*
X004134Y007636D02*
X004347Y007636D01*
X005095Y008326D02*
X009091Y008326D01*
X009050Y008424D02*
X004997Y008424D01*
X004898Y008523D02*
X008309Y008523D01*
X008307Y008621D02*
X004860Y008621D01*
X004860Y008720D02*
X008307Y008720D01*
X008307Y008818D02*
X004860Y008818D01*
X004860Y008917D02*
X008307Y008917D01*
X008307Y009015D02*
X004860Y009015D01*
X004860Y009114D02*
X005886Y009114D01*
X005787Y009212D02*
X004860Y009212D01*
X004924Y009311D02*
X005740Y009311D01*
X005711Y009409D02*
X004999Y009409D01*
X005040Y009508D02*
X005711Y009508D01*
X005734Y009606D02*
X005046Y009606D01*
X005046Y009705D02*
X005775Y009705D01*
X005285Y009803D02*
X005046Y009803D01*
X005046Y009902D02*
X005170Y009902D01*
X005136Y010000D02*
X005046Y010000D01*
X005046Y010099D02*
X005136Y010099D01*
X005136Y010197D02*
X005046Y010197D01*
X005014Y010296D02*
X005136Y010296D01*
X006501Y009705D02*
X006956Y009705D01*
X006915Y009606D02*
X006542Y009606D01*
X006565Y009508D02*
X006892Y009508D01*
X006892Y009409D02*
X006565Y009409D01*
X006537Y009311D02*
X006921Y009311D01*
X006968Y009212D02*
X006489Y009212D01*
X006391Y009114D02*
X007067Y009114D01*
X007572Y009114D02*
X008307Y009114D01*
X008352Y009212D02*
X007670Y009212D01*
X007718Y009311D02*
X008352Y009311D01*
X008352Y009409D02*
X007746Y009409D01*
X007746Y009508D02*
X008352Y009508D01*
X008352Y009606D02*
X007723Y009606D01*
X007682Y009705D02*
X008352Y009705D01*
X008359Y009803D02*
X008164Y009803D01*
X008280Y009902D02*
X008368Y009902D01*
X008368Y010000D02*
X008313Y010000D01*
X008313Y010099D02*
X008368Y010099D01*
X008368Y010197D02*
X008313Y010197D01*
X008313Y010296D02*
X008398Y010296D01*
X009138Y010372D02*
X009200Y010223D01*
X009200Y009526D01*
X009136Y009373D01*
X009019Y009256D01*
X008972Y009237D01*
X009081Y009237D01*
X009120Y009226D01*
X009154Y009207D01*
X009182Y009179D01*
X009201Y009145D01*
X009211Y009108D01*
X009364Y009260D01*
X009644Y009376D01*
X009947Y009376D01*
X010227Y009260D01*
X010442Y009046D01*
X010557Y008766D01*
X010557Y008463D01*
X010501Y008326D01*
X010583Y008408D01*
X010583Y008408D01*
X010640Y008466D01*
X010640Y009254D01*
X010635Y009256D01*
X010518Y009373D01*
X010455Y009526D01*
X010455Y010223D01*
X010517Y010372D01*
X009138Y010372D01*
X009170Y010296D02*
X010485Y010296D01*
X010455Y010197D02*
X009200Y010197D01*
X009200Y010099D02*
X010455Y010099D01*
X010455Y010000D02*
X009200Y010000D01*
X009200Y009902D02*
X010455Y009902D01*
X010455Y009803D02*
X009200Y009803D01*
X009200Y009705D02*
X010455Y009705D01*
X010455Y009606D02*
X009200Y009606D01*
X009192Y009508D02*
X010462Y009508D01*
X010503Y009409D02*
X009151Y009409D01*
X009074Y009311D02*
X009485Y009311D01*
X009316Y009212D02*
X009144Y009212D01*
X009210Y009114D02*
X009217Y009114D01*
X008949Y008818D02*
X008924Y008818D01*
X008924Y008720D02*
X008949Y008720D01*
X008949Y008621D02*
X008924Y008621D01*
X008924Y008523D02*
X008949Y008523D01*
X009132Y008227D02*
X005194Y008227D01*
X005292Y008129D02*
X009204Y008129D01*
X009303Y008030D02*
X005391Y008030D01*
X005841Y007932D02*
X009454Y007932D01*
X009811Y007636D02*
X009055Y007636D01*
X009154Y007538D02*
X009712Y007538D01*
X009614Y007439D02*
X009224Y007439D01*
X009265Y007341D02*
X009515Y007341D01*
X009417Y007242D02*
X009293Y007242D01*
X009293Y007144D02*
X009318Y007144D01*
X009673Y006848D02*
X010023Y006848D01*
X010121Y006947D02*
X009772Y006947D01*
X009870Y007045D02*
X010220Y007045D01*
X010318Y007144D02*
X009969Y007144D01*
X010067Y007242D02*
X010417Y007242D01*
X010515Y007341D02*
X010166Y007341D01*
X010264Y007439D02*
X010614Y007439D01*
X010712Y007538D02*
X010363Y007538D01*
X010461Y007636D02*
X010811Y007636D01*
X010909Y007735D02*
X010560Y007735D01*
X010658Y007833D02*
X011008Y007833D01*
X011106Y007932D02*
X010757Y007932D01*
X010855Y008030D02*
X011205Y008030D01*
X011303Y008129D02*
X010954Y008129D01*
X011043Y008227D02*
X011402Y008227D01*
X011500Y008326D02*
X011083Y008326D01*
X011100Y008424D02*
X011599Y008424D01*
X011640Y008523D02*
X011100Y008523D01*
X011100Y008621D02*
X011640Y008621D01*
X011640Y008720D02*
X011100Y008720D01*
X011100Y008818D02*
X011640Y008818D01*
X011640Y008917D02*
X011100Y008917D01*
X011100Y009015D02*
X011640Y009015D01*
X011640Y009114D02*
X011100Y009114D01*
X011100Y009212D02*
X011640Y009212D01*
X011581Y009311D02*
X011160Y009311D01*
X011238Y009409D02*
X011503Y009409D01*
X011462Y009508D02*
X011279Y009508D01*
X011286Y009606D02*
X011455Y009606D01*
X011455Y009705D02*
X011286Y009705D01*
X011286Y009803D02*
X011455Y009803D01*
X011455Y009902D02*
X011286Y009902D01*
X011286Y010000D02*
X011455Y010000D01*
X011455Y010099D02*
X011286Y010099D01*
X011286Y010197D02*
X011455Y010197D01*
X011485Y010296D02*
X011256Y010296D01*
X010581Y009311D02*
X010106Y009311D01*
X010276Y009212D02*
X010640Y009212D01*
X010640Y009114D02*
X010374Y009114D01*
X010454Y009015D02*
X010640Y009015D01*
X010640Y008917D02*
X010495Y008917D01*
X010536Y008818D02*
X010640Y008818D01*
X010640Y008720D02*
X010557Y008720D01*
X010557Y008621D02*
X010640Y008621D01*
X010640Y008523D02*
X010557Y008523D01*
X010541Y008424D02*
X010599Y008424D01*
X010008Y007833D02*
X006021Y007833D01*
X006119Y007735D02*
X008590Y007735D01*
X008371Y007636D02*
X006218Y007636D01*
X006316Y007538D02*
X008272Y007538D01*
X008202Y007439D02*
X006415Y007439D01*
X006124Y006686D02*
X006124Y006686D01*
X006124Y006686D01*
X006040Y006651D02*
X006208Y006651D01*
X005623Y006651D02*
X005536Y006651D01*
X005354Y006553D02*
X008727Y006553D01*
X008629Y006454D02*
X005256Y006454D01*
X005157Y006356D02*
X008530Y006356D01*
X008432Y006257D02*
X005059Y006257D01*
X003739Y006159D02*
X008333Y006159D01*
X008235Y006060D02*
X003745Y006060D01*
X003743Y005962D02*
X008136Y005962D01*
X008038Y005863D02*
X003702Y005863D01*
X003638Y005765D02*
X007939Y005765D01*
X007841Y005666D02*
X003523Y005666D01*
X002311Y004287D02*
X000400Y004287D01*
X000400Y004189D02*
X002274Y004189D01*
X003933Y002416D02*
X004935Y002416D01*
X006988Y004780D02*
X007891Y004780D01*
X007970Y004878D02*
X007703Y004878D01*
X007802Y004977D02*
X008151Y004977D01*
X008250Y005075D02*
X007900Y005075D01*
X007820Y004994D02*
X007820Y004994D01*
X007999Y005174D02*
X008348Y005174D01*
X008447Y005272D02*
X008097Y005272D01*
X008196Y005371D02*
X008545Y005371D01*
X008644Y005469D02*
X008294Y005469D01*
X008393Y005568D02*
X008742Y005568D01*
X008841Y005666D02*
X008491Y005666D01*
X008590Y005765D02*
X008939Y005765D01*
X009038Y005863D02*
X008688Y005863D01*
X008787Y005962D02*
X009136Y005962D01*
X009235Y006060D02*
X008885Y006060D01*
X008984Y006159D02*
X009333Y006159D01*
X009432Y006257D02*
X009082Y006257D01*
X009181Y006356D02*
X009530Y006356D01*
X009629Y006454D02*
X009279Y006454D01*
X009378Y006553D02*
X009727Y006553D01*
X009826Y006651D02*
X009476Y006651D01*
X009575Y006750D02*
X009924Y006750D01*
X010279Y006454D02*
X010641Y006454D01*
X010739Y006553D02*
X010378Y006553D01*
X010476Y006651D02*
X010838Y006651D01*
X010936Y006750D02*
X010575Y006750D01*
X010673Y006848D02*
X011035Y006848D01*
X011133Y006947D02*
X010772Y006947D01*
X010870Y007045D02*
X011232Y007045D01*
X011330Y007144D02*
X010969Y007144D01*
X011067Y007242D02*
X011429Y007242D01*
X011527Y007341D02*
X011166Y007341D01*
X011264Y007439D02*
X011626Y007439D01*
X011704Y007538D02*
X011363Y007538D01*
X011461Y007636D02*
X011744Y007636D01*
X011851Y007735D02*
X011560Y007735D01*
X011658Y007833D02*
X012105Y007833D01*
X012105Y007932D02*
X011757Y007932D01*
X011855Y008030D02*
X012105Y008030D01*
X012105Y008129D02*
X011954Y008129D01*
X012043Y008227D02*
X012105Y008227D01*
X012105Y008326D02*
X012083Y008326D01*
X012100Y008424D02*
X012105Y008424D01*
X012100Y008523D02*
X012105Y008523D01*
X012100Y008621D02*
X012105Y008621D01*
X012100Y008720D02*
X012105Y008720D01*
X012100Y008818D02*
X012105Y008818D01*
X012100Y008917D02*
X012105Y008917D01*
X012100Y009015D02*
X012105Y009015D01*
X012100Y009114D02*
X012105Y009114D01*
X012100Y009212D02*
X012105Y009212D01*
X009909Y007735D02*
X008836Y007735D01*
X008161Y007341D02*
X007667Y007341D01*
X007765Y007242D02*
X008133Y007242D01*
X008133Y007144D02*
X007864Y007144D01*
X008045Y007045D02*
X008133Y007045D01*
X008104Y006947D02*
X008173Y006947D01*
X008214Y006848D02*
X008120Y006848D01*
X008102Y006750D02*
X008301Y006750D01*
X008421Y006651D02*
X008040Y006651D01*
X007623Y006651D02*
X007540Y006651D01*
X009097Y005272D02*
X009459Y005272D01*
X009557Y005371D02*
X009196Y005371D01*
X009294Y005469D02*
X009656Y005469D01*
X009754Y005568D02*
X009393Y005568D01*
X009491Y005666D02*
X009853Y005666D01*
X009951Y005765D02*
X009590Y005765D01*
X009688Y005863D02*
X010050Y005863D01*
X010148Y005962D02*
X009787Y005962D01*
X009885Y006060D02*
X010247Y006060D01*
X010345Y006159D02*
X009984Y006159D01*
X010082Y006257D02*
X010444Y006257D01*
X010542Y006356D02*
X010181Y006356D01*
X010700Y005863D02*
X012105Y005863D01*
X012105Y005765D02*
X010602Y005765D01*
X010503Y005666D02*
X010923Y005666D01*
X010885Y005650D02*
X010693Y005458D01*
X010589Y005207D01*
X010589Y004935D01*
X010693Y004684D01*
X010885Y004492D01*
X011136Y004388D01*
X011408Y004388D01*
X011659Y004492D01*
X011851Y004684D01*
X011955Y004935D01*
X011955Y005207D01*
X011851Y005458D01*
X011659Y005650D01*
X011408Y005754D01*
X011136Y005754D01*
X010885Y005650D01*
X010802Y005568D02*
X010405Y005568D01*
X010306Y005469D02*
X010704Y005469D01*
X010657Y005371D02*
X010208Y005371D01*
X010109Y005272D02*
X010616Y005272D01*
X010589Y005174D02*
X010011Y005174D01*
X009912Y005075D02*
X010589Y005075D01*
X010589Y004977D02*
X009814Y004977D01*
X009715Y004878D02*
X010613Y004878D01*
X010654Y004780D02*
X009617Y004780D01*
X009518Y004681D02*
X010696Y004681D01*
X010795Y004583D02*
X009420Y004583D01*
X009321Y004484D02*
X010905Y004484D01*
X010992Y004386D02*
X011560Y004386D01*
X011639Y004484D02*
X012105Y004484D01*
X012105Y004386D02*
X011992Y004386D01*
X012091Y004287D02*
X012105Y004287D01*
X012105Y004583D02*
X011749Y004583D01*
X011848Y004681D02*
X012105Y004681D01*
X012105Y004780D02*
X011891Y004780D01*
X011931Y004878D02*
X012105Y004878D01*
X012105Y004977D02*
X011955Y004977D01*
X011955Y005075D02*
X012105Y005075D01*
X012105Y005174D02*
X011955Y005174D01*
X011928Y005272D02*
X012105Y005272D01*
X012105Y005371D02*
X011887Y005371D01*
X011840Y005469D02*
X012105Y005469D01*
X012105Y005568D02*
X011742Y005568D01*
X011621Y005666D02*
X012105Y005666D01*
X012105Y005962D02*
X010799Y005962D01*
X010897Y006060D02*
X012105Y006060D01*
X012105Y006159D02*
X010996Y006159D01*
X011094Y006257D02*
X012105Y006257D01*
X012105Y006356D02*
X011193Y006356D01*
X011291Y006454D02*
X012105Y006454D01*
X012105Y006553D02*
X011390Y006553D01*
X011488Y006651D02*
X012105Y006651D01*
X012105Y006750D02*
X011587Y006750D01*
X011685Y006848D02*
X012105Y006848D01*
X012105Y006947D02*
X011784Y006947D01*
X011882Y007045D02*
X012105Y007045D01*
X012105Y007144D02*
X011981Y007144D01*
X009360Y005174D02*
X008999Y005174D01*
X008900Y005075D02*
X009262Y005075D01*
X009163Y004977D02*
X008802Y004977D01*
X008703Y004878D02*
X009065Y004878D01*
X008966Y004780D02*
X008605Y004780D01*
X008506Y004681D02*
X008868Y004681D01*
X008769Y004583D02*
X008435Y004583D01*
X008392Y004484D02*
X008671Y004484D01*
X008572Y004386D02*
X008266Y004386D01*
X008829Y003992D02*
X009256Y003992D01*
X009264Y004090D02*
X008927Y004090D01*
X009026Y004189D02*
X009363Y004189D01*
X009461Y004287D02*
X009124Y004287D01*
X009223Y004386D02*
X009560Y004386D01*
X009728Y004386D02*
X009824Y004386D01*
X009824Y004287D02*
X009728Y004287D01*
X009728Y004189D02*
X009824Y004189D01*
X009824Y004090D02*
X009728Y004090D01*
X009728Y003992D02*
X009824Y003992D01*
X009728Y003893D02*
X008717Y003893D01*
X009992Y004386D02*
X010560Y004386D01*
X010461Y004287D02*
X010091Y004287D01*
X010189Y004189D02*
X010363Y004189D01*
X011091Y004287D02*
X011461Y004287D01*
X011363Y004189D02*
X011189Y004189D01*
X011776Y003867D02*
X011330Y003420D01*
X011272Y003281D02*
X011272Y001472D01*
X011214Y001333D02*
X010365Y000483D01*
X010718Y001309D02*
X010735Y001328D01*
X010750Y001349D01*
X010761Y001373D01*
X010769Y001397D01*
X010774Y001422D01*
X010776Y001448D01*
X010576Y001529D02*
X010557Y001529D01*
X010557Y001628D02*
X010576Y001628D01*
X010576Y001726D02*
X010538Y001726D01*
X010576Y001825D02*
X010497Y001825D01*
X010457Y001923D02*
X010576Y001923D01*
X010576Y002022D02*
X010379Y002022D01*
X010281Y002120D02*
X010576Y002120D01*
X010576Y002219D02*
X010119Y002219D01*
X011272Y001472D02*
X011270Y001446D01*
X011265Y001421D01*
X011257Y001397D01*
X011246Y001373D01*
X011231Y001352D01*
X011214Y001333D01*
X011472Y001589D02*
X011472Y002435D01*
X011561Y002347D01*
X011991Y002347D01*
X012105Y002460D01*
X012105Y002222D01*
X011472Y001589D01*
X011472Y001628D02*
X011510Y001628D01*
X011472Y001726D02*
X011609Y001726D01*
X011707Y001825D02*
X011472Y001825D01*
X011472Y001923D02*
X011806Y001923D01*
X011904Y002022D02*
X011472Y002022D01*
X011472Y002120D02*
X012003Y002120D01*
X012101Y002219D02*
X011472Y002219D01*
X011472Y002317D02*
X012105Y002317D01*
X012105Y002416D02*
X012060Y002416D01*
X011492Y002416D02*
X011472Y002416D01*
X011272Y003281D02*
X011274Y003307D01*
X011279Y003332D01*
X011287Y003356D01*
X011298Y003380D01*
X011313Y003401D01*
X011330Y003420D01*
X001958Y009311D02*
X001774Y009311D01*
X001850Y009409D02*
X001861Y009409D01*
X001187Y009311D02*
X000987Y009311D01*
X001062Y009409D02*
X001112Y009409D01*
M02*
